<?xml version="1.0" standalone="no"?>
<!DOCTYPE svg PUBLIC "-//W3C//DTD SVG 20010904//EN"
 "http://www.w3.org/TR/2001/REC-SVG-20010904/DTD/svg10.dtd">
<svg version="1.0" xmlns="http://www.w3.org/2000/svg"
 width="2611.000000pt" height="1835.000000pt" viewBox="0 0 2611.000000 1835.000000"
 preserveAspectRatio="xMidYMid meet">

<g transform="translate(0.000000,1835.000000) scale(0.100000,-0.100000)"
fill="#000000" stroke="none">
<path d="M14215 17060 c-1001 -72 -1931 -373 -2770 -898 -642 -401 -1240 -965
-1688 -1593 -541 -759 -905 -1665 -1036 -2579 -71 -495 -80 -1060 -25 -1550
133 -1172 619 -2282 1399 -3196 138 -162 441 -467 607 -611 632 -548 1353
-950 2150 -1197 867 -269 1809 -333 2718 -186 820 134 1595 435 2301 895 88
58 128 89 123 98 -6 10 -541 785 -550 795 -1 2 -43 -24 -92 -57 -967 -650
-2180 -936 -3352 -791 -779 97 -1492 362 -2146 799 -1036 692 -1772 1735
-2069 2932 -146 591 -182 1224 -104 1839 122 971 543 1900 1195 2640 128 145
406 417 544 531 784 650 1675 1025 2690 1136 203 22 744 25 945 5 399 -40 799
-124 1150 -244 352 -120 784 -329 1095 -530 l25 -16 273 394 c150 216 275 399
277 406 9 24 -362 242 -660 387 -645 315 -1303 501 -2045 576 -181 19 -773 28
-955 15z"/>
<path d="M13700 13680 c-698 -96 -1245 -601 -1390 -1285 -13 -60 -24 -157 -27
-242 l-6 -143 490 0 490 0 6 93 c6 109 32 197 84 287 46 79 149 183 225 228
327 193 766 62 918 -273 38 -83 52 -151 52 -248 0 -103 -37 -222 -118 -377
-37 -70 -404 -610 -1114 -1635 l-1059 -1530 1387 -3 c1101 -2 1389 1 1398 10
18 19 664 955 664 962 0 3 -353 6 -785 6 -432 0 -785 3 -785 6 0 4 257 377
570 831 314 453 593 863 621 911 89 156 160 369 189 567 19 125 14 361 -9 496
-115 664 -627 1188 -1288 1320 -122 24 -401 34 -513 19z"/>
<path d="M16286 13205 c-185 -267 -336 -488 -336 -490 0 -3 191 -5 425 -5
l425 0 0 -2080 0 -2080 490 0 490 0 0 2570 0 2570 -579 0 -579 0 -336 -485z"/>
<path d="M2560 3575 c-187 -30 -369 -101 -537 -211 -108 -69 -290 -248 -360
-354 -110 -164 -187 -359 -219 -549 -26 -158 -16 -377 24 -533 100 -387 344
-692 696 -870 202 -101 377 -142 611 -141 178 0 303 23 465 84 171 64 389 201
376 235 -3 8 -67 103 -143 212 l-137 199 -76 -56 c-152 -113 -304 -163 -495
-163 -181 0 -318 42 -465 142 -294 200 -430 585 -325 920 33 104 53 144 118
238 263 381 798 463 1175 180 35 -27 65 -48 67 -48 2 0 58 80 126 178 67 97
133 191 146 209 l24 31 -78 57 c-99 72 -291 167 -408 200 -187 54 -403 68
-585 40z"/>
<path d="M4310 2250 l0 -1340 890 0 890 0 0 255 0 255 -635 0 -635 0 0 290 0
290 510 0 510 0 0 255 0 255 -510 0 -510 0 0 285 0 285 635 0 635 0 0 255 0
255 -890 0 -890 0 0 -1340z"/>
<path d="M6780 2250 l0 -1340 253 2 252 3 5 893 5 892 620 -895 619 -895 253
0 253 0 0 1340 0 1340 -255 0 -255 0 0 -896 0 -897 -621 897 -621 896 -254 0
-254 0 0 -1340z"/>
<path d="M9730 3335 l0 -255 395 0 395 0 0 -1085 0 -1085 253 2 252 3 3 1083
2 1082 395 0 395 0 0 255 0 255 -1045 0 -1045 0 0 -255z"/>
<path d="M12502 2713 c3 -861 4 -879 25 -953 97 -345 290 -584 588 -730 199
-98 390 -134 595 -111 438 47 805 341 939 751 56 173 54 137 58 1063 l4 857
-260 0 -261 0 0 -831 c0 -726 -2 -839 -16 -893 -76 -293 -374 -485 -674 -432
-231 41 -428 230 -476 455 -11 53 -14 221 -14 884 l0 817 -255 0 -256 0 3
-877z"/>
<path d="M15390 2250 l0 -1340 255 0 255 0 0 440 0 440 163 0 164 0 304 -440
304 -440 303 0 c240 0 302 3 296 13 -4 6 -145 211 -313 455 -168 243 -306 445
-306 447 0 3 36 21 79 40 208 90 364 241 459 445 68 145 82 209 82 385 -1 125
-4 163 -23 228 -92 320 -317 543 -647 641 -67 19 -97 20 -722 24 l-653 3 0
-1341z m1312 793 c85 -40 151 -106 191 -191 29 -61 32 -76 32 -162 0 -82 -4
-103 -27 -153 -35 -74 -114 -157 -180 -189 -85 -42 -148 -48 -495 -48 l-323 0
0 391 0 390 368 -3 367 -3 67 -32z"/>
<path d="M17693 3568 c8 -13 256 -371 551 -797 l536 -775 0 -543 0 -543 255 0
255 0 0 544 0 543 544 786 c300 433 547 791 551 797 4 7 -94 10 -298 10 l-304
0 -368 -532 c-203 -293 -371 -536 -375 -541 -3 -4 -175 236 -380 533 l-374
540 -304 0 -304 0 15 -22z"/>
<path d="M22278 3580 c-289 -49 -545 -255 -647 -520 -36 -94 -61 -211 -61
-290 l0 -60 254 0 253 0 6 59 c11 121 86 228 196 280 47 22 69 26 141 26 72
-1 94 -5 142 -28 68 -33 129 -92 160 -155 18 -37 23 -64 23 -127 0 -73 -4 -87
-41 -165 -26 -55 -235 -366 -592 -882 -304 -438 -552 -799 -552 -802 0 -3 394
-6 875 -6 l875 0 0 255 0 255 -386 0 c-336 0 -385 2 -381 15 4 8 141 209 305
447 165 238 311 456 324 483 128 258 115 567 -34 820 -57 96 -202 238 -298
292 -169 95 -380 133 -562 103z"/>
<path d="M23830 3335 l0 -255 140 0 140 0 0 -1085 0 -1085 255 0 255 0 0 1340
0 1340 -395 0 -395 0 0 -255z"/>
<path d="M24965 1341 c-207 -53 -239 -316 -50 -413 139 -73 315 38 315 197 0
136 -138 249 -265 216z m121 -50 c23 -10 54 -36 70 -57 26 -33 29 -46 29 -109
0 -63 -3 -76 -29 -109 -33 -44 -95 -76 -146 -76 -51 0 -113 32 -146 76 -26 33
-29 46 -29 109 0 63 3 76 29 109 33 44 95 76 146 76 19 0 54 -9 76 -19z"/>
<path d="M24912 1123 c3 -103 5 -118 21 -121 14 -3 17 4 17 47 0 50 1 51 29
51 24 0 34 -8 60 -50 20 -33 38 -50 51 -50 27 0 25 7 -14 60 l-33 45 29 27
c34 32 35 52 3 83 -21 22 -33 25 -95 25 l-71 0 3 -117z m132 71 c31 -31 9 -54
-51 -54 -42 0 -43 0 -43 35 0 34 1 35 39 35 23 0 46 -7 55 -16z"/>
</g>
</svg>
