<?xml version="1.0" encoding="UTF-8"?>
<svg xmlns="http://www.w3.org/2000/svg" xmlns:xlink="http://www.w3.org/1999/xlink" width="61pt" height="50pt" viewBox="0 0 61 50" version="1.1">
<g id="surface1">
<path style=" stroke:none;fill-rule:evenodd;fill:rgb(0%,19.993591%,70.117188%);fill-opacity:1;" d="M 0.71875 37.050781 L 60.914063 37.050781 L 60.914063 0.945313 L 0.71875 0.945313 Z M 0.71875 37.050781 "/>
<path style=" stroke:none;fill-rule:evenodd;fill:rgb(100%,100%,100%);fill-opacity:1;" d="M 7.582031 24.199219 C 7.582031 24.53125 7.878906 24.632813 7.996094 24.644531 C 8.066406 24.648438 8.109375 24.6875 8.109375 24.773438 C 8.109375 24.859375 7.953125 24.859375 7.796875 24.859375 C 7.632813 24.859375 7.414063 24.816406 7.199219 24.816406 C 6.984375 24.816406 6.769531 24.859375 6.554688 24.859375 C 6.453125 24.859375 6.371094 24.859375 6.371094 24.773438 C 6.371094 24.6875 6.460938 24.660156 6.515625 24.644531 C 6.726563 24.578125 6.765625 24.375 6.765625 24.199219 L 6.765625 21.773438 C 6.765625 21.441406 6.582031 21.34375 6.355469 21.328125 C 6.285156 21.324219 6.242188 21.285156 6.242188 21.199219 C 6.242188 21.113281 6.398438 21.113281 6.554688 21.113281 C 6.769531 21.113281 6.984375 21.15625 7.199219 21.15625 C 7.414063 21.15625 7.632813 21.113281 7.847656 21.113281 C 7.921875 21.113281 8.003906 21.113281 8.003906 21.199219 C 8.003906 21.285156 7.855469 21.3125 7.804688 21.328125 C 7.59375 21.394531 7.582031 21.597656 7.582031 21.773438 L 7.582031 24.199219 "/>
<path style=" stroke:none;fill-rule:evenodd;fill:rgb(100%,100%,100%);fill-opacity:1;" d="M 9.460938 22.222656 C 9.347656 22.109375 9.234375 22.007813 9.207031 22.007813 C 9.179688 22.007813 9.164063 22.023438 9.164063 22.152344 L 9.164063 24.074219 C 9.164063 24.335938 9.257813 24.535156 9.515625 24.617188 C 9.648438 24.660156 9.828125 24.648438 9.828125 24.75 C 9.828125 24.859375 9.699219 24.859375 9.601563 24.859375 C 9.414063 24.859375 9.222656 24.816406 9.035156 24.816406 C 8.847656 24.816406 8.660156 24.859375 8.46875 24.859375 C 8.417969 24.859375 8.355469 24.859375 8.355469 24.773438 C 8.355469 24.6875 8.421875 24.660156 8.503906 24.617188 C 8.78125 24.464844 8.867188 24.308594 8.867188 24.015625 L 8.867188 21.984375 C 8.867188 21.78125 8.789063 21.484375 8.589844 21.386719 C 8.410156 21.300781 8.335938 21.285156 8.335938 21.199219 C 8.335938 21.113281 8.367188 21.113281 8.40625 21.113281 C 8.566406 21.113281 8.730469 21.136719 8.890625 21.136719 C 9.050781 21.136719 9.214844 21.113281 9.375 21.113281 C 9.492188 21.113281 9.53125 21.128906 9.578125 21.183594 L 11.664063 23.339844 C 11.738281 23.417969 11.816406 23.488281 11.847656 23.488281 C 11.890625 23.488281 11.894531 23.410156 11.894531 23.335938 L 11.894531 22.113281 C 11.894531 21.757813 11.875 21.429688 11.539063 21.355469 C 11.398438 21.324219 11.253906 21.285156 11.253906 21.199219 C 11.253906 21.113281 11.355469 21.113281 11.453125 21.113281 C 11.644531 21.113281 11.832031 21.15625 12.019531 21.15625 C 12.207031 21.15625 12.394531 21.113281 12.585938 21.113281 C 12.636719 21.113281 12.699219 21.113281 12.699219 21.199219 C 12.699219 21.285156 12.632813 21.3125 12.550781 21.355469 C 12.273438 21.507813 12.191406 21.664063 12.191406 21.957031 L 12.191406 24.550781 C 12.191406 24.789063 12.167969 24.851563 12.105469 24.851563 C 12.046875 24.851563 11.90625 24.71875 11.769531 24.585938 L 9.460938 22.222656 "/>
<path style=" stroke:none;fill-rule:evenodd;fill:rgb(100%,100%,100%);fill-opacity:1;" d="M 14.351563 21.644531 C 14.351563 21.453125 14.21875 21.410156 13.960938 21.410156 C 13.445313 21.410156 13.214844 21.453125 13.078125 21.984375 C 13.074219 22.019531 13.042969 22.035156 12.984375 22.035156 C 12.90625 22.035156 12.886719 22 12.886719 21.96875 C 12.886719 21.921875 12.898438 21.84375 12.902344 21.785156 L 12.957031 21.238281 C 12.964844 21.140625 12.992188 21.113281 13.117188 21.113281 C 13.667969 21.113281 14.210938 21.15625 14.761719 21.15625 C 15.308594 21.15625 15.863281 21.113281 16.402344 21.113281 C 16.535156 21.113281 16.550781 21.128906 16.570313 21.3125 L 16.621094 21.859375 C 16.628906 21.898438 16.632813 21.941406 16.632813 21.980469 C 16.632813 22.011719 16.578125 22.035156 16.535156 22.035156 C 16.472656 22.035156 16.445313 22.019531 16.4375 21.984375 C 16.304688 21.453125 16.074219 21.410156 15.554688 21.410156 C 15.261719 21.410156 15.167969 21.46875 15.167969 21.644531 L 15.167969 24.144531 C 15.167969 24.570313 15.535156 24.5625 15.710938 24.644531 C 15.773438 24.671875 15.863281 24.65625 15.863281 24.773438 C 15.863281 24.859375 15.796875 24.859375 15.734375 24.859375 C 15.414063 24.859375 15.089844 24.816406 14.761719 24.816406 C 14.429688 24.816406 14.101563 24.859375 13.785156 24.859375 C 13.71875 24.859375 13.65625 24.859375 13.65625 24.773438 C 13.65625 24.65625 13.746094 24.671875 13.804688 24.644531 C 13.984375 24.5625 14.351563 24.570313 14.351563 24.144531 L 14.351563 21.644531 "/>
<path style=" stroke:none;fill-rule:evenodd;fill:rgb(100%,100%,100%);fill-opacity:1;" d="M 17.332031 22.050781 C 17.332031 21.785156 17.304688 21.382813 17.082031 21.355469 C 16.914063 21.335938 16.800781 21.285156 16.800781 21.199219 C 16.800781 21.113281 16.890625 21.113281 17 21.113281 C 17.414063 21.167969 17.828125 21.152344 18.242188 21.15625 C 18.65625 21.15625 19.070313 21.113281 19.488281 21.113281 C 19.609375 21.113281 19.71875 21.113281 19.71875 21.222656 C 19.71875 21.339844 19.695313 21.457031 19.695313 21.578125 C 19.695313 21.695313 19.71875 21.8125 19.71875 21.929688 C 19.71875 21.988281 19.703125 22.035156 19.621094 22.035156 C 19.535156 22.035156 19.519531 21.9375 19.511719 21.886719 C 19.476563 21.550781 19.320313 21.410156 18.691406 21.410156 L 18.339844 21.410156 C 18.1875 21.410156 18.152344 21.457031 18.152344 21.667969 L 18.152344 22.609375 C 18.152344 22.695313 18.242188 22.722656 18.457031 22.722656 C 18.769531 22.722656 19.007813 22.628906 19.09375 22.398438 C 19.152344 22.25 19.171875 22.230469 19.226563 22.230469 C 19.308594 22.230469 19.308594 22.308594 19.308594 22.382813 C 19.308594 22.542969 19.289063 22.707031 19.289063 22.867188 C 19.289063 23.03125 19.308594 23.191406 19.308594 23.351563 C 19.308594 23.425781 19.308594 23.503906 19.207031 23.503906 C 19.125 23.503906 19.125 23.339844 19.0625 23.234375 C 18.925781 23.011719 18.769531 22.980469 18.457031 22.980469 C 18.199219 22.980469 18.152344 23.050781 18.152344 23.183594 L 18.152344 24.105469 C 18.152344 24.503906 18.222656 24.5625 18.507813 24.5625 C 19.070313 24.5625 19.382813 24.390625 19.566406 24.214844 C 19.75 24.035156 19.804688 23.851563 19.890625 23.851563 C 19.957031 23.851563 19.976563 23.902344 19.976563 23.957031 C 19.976563 24.0625 19.933594 24.273438 19.894531 24.378906 C 19.824219 24.59375 19.582031 24.859375 19.332031 24.859375 C 18.96875 24.859375 18.609375 24.816406 18.246094 24.816406 C 17.886719 24.816406 17.527344 24.859375 17.164063 24.859375 C 17 24.859375 16.917969 24.859375 16.917969 24.773438 C 16.917969 24.6875 17.027344 24.648438 17.121094 24.601563 C 17.300781 24.515625 17.332031 24.386719 17.332031 24.078125 L 17.332031 22.050781 "/>
<path style=" stroke:none;fill-rule:evenodd;fill:rgb(100%,100%,100%);fill-opacity:1;" d="M 20.714844 21.773438 C 20.714844 21.457031 20.53125 21.359375 20.304688 21.328125 C 20.234375 21.316406 20.191406 21.285156 20.191406 21.199219 C 20.191406 21.144531 20.214844 21.113281 20.34375 21.113281 C 20.472656 21.113281 20.617188 21.15625 21 21.15625 C 21.289063 21.15625 21.6875 21.113281 21.925781 21.113281 C 22.648438 21.113281 23.394531 21.246094 23.394531 22.136719 C 23.394531 22.503906 23.210938 22.691406 22.992188 22.820313 C 22.882813 22.878906 22.726563 22.910156 22.726563 22.964844 C 22.726563 23.046875 23.332031 24.121094 23.59375 24.417969 C 23.648438 24.476563 23.691406 24.507813 23.738281 24.507813 C 23.796875 24.507813 23.859375 24.492188 23.90625 24.492188 C 23.96875 24.492188 23.992188 24.53125 23.992188 24.589844 C 23.992188 24.820313 23.355469 24.851563 23.179688 24.851563 C 23.023438 24.851563 22.835938 24.746094 22.71875 24.53125 L 22.085938 23.378906 C 21.996094 23.210938 21.910156 23.078125 21.710938 23.078125 C 21.570313 23.078125 21.53125 23.105469 21.53125 23.175781 L 21.53125 24.089844 C 21.53125 24.53125 21.714844 24.628906 21.941406 24.644531 C 22.011719 24.648438 22.054688 24.6875 22.054688 24.773438 C 22.054688 24.84375 21.988281 24.859375 21.742188 24.859375 C 21.527344 24.859375 21.3125 24.816406 21.097656 24.816406 C 20.882813 24.816406 20.664063 24.859375 20.449219 24.859375 C 20.375 24.859375 20.292969 24.859375 20.292969 24.773438 C 20.292969 24.6875 20.386719 24.660156 20.441406 24.644531 C 20.648438 24.578125 20.714844 24.375 20.714844 24.199219 L 20.714844 21.773438 M 21.53125 22.65625 C 21.53125 22.722656 21.53125 22.847656 21.875 22.847656 C 22.359375 22.847656 22.558594 22.621094 22.558594 22.082031 C 22.558594 21.695313 22.328125 21.316406 21.867188 21.316406 C 21.582031 21.316406 21.53125 21.402344 21.53125 21.597656 L 21.53125 22.65625 "/>
<path style=" stroke:none;fill-rule:evenodd;fill:rgb(100%,100%,100%);fill-opacity:1;" d="M 25.226563 22.222656 C 25.113281 22.109375 25 22.007813 24.972656 22.007813 C 24.945313 22.007813 24.929688 22.023438 24.929688 22.152344 L 24.929688 24.074219 C 24.929688 24.335938 25.019531 24.535156 25.28125 24.617188 C 25.414063 24.660156 25.59375 24.648438 25.59375 24.75 C 25.59375 24.859375 25.460938 24.859375 25.367188 24.859375 C 25.175781 24.859375 24.988281 24.816406 24.800781 24.816406 C 24.609375 24.816406 24.421875 24.859375 24.234375 24.859375 C 24.179688 24.859375 24.121094 24.859375 24.121094 24.773438 C 24.121094 24.6875 24.1875 24.660156 24.265625 24.617188 C 24.546875 24.464844 24.632813 24.308594 24.632813 24.015625 L 24.632813 21.984375 C 24.632813 21.78125 24.550781 21.484375 24.351563 21.386719 C 24.175781 21.300781 24.101563 21.285156 24.101563 21.199219 C 24.101563 21.113281 24.132813 21.113281 24.167969 21.113281 C 24.332031 21.113281 24.492188 21.136719 24.65625 21.136719 C 24.816406 21.136719 24.976563 21.113281 25.140625 21.113281 C 25.257813 21.113281 25.292969 21.128906 25.34375 21.183594 L 27.425781 23.339844 C 27.503906 23.417969 27.578125 23.488281 27.609375 23.488281 C 27.652344 23.488281 27.660156 23.410156 27.660156 23.335938 L 27.660156 22.113281 C 27.660156 21.757813 27.636719 21.429688 27.304688 21.355469 C 27.164063 21.324219 27.019531 21.285156 27.019531 21.199219 C 27.019531 21.113281 27.121094 21.113281 27.21875 21.113281 C 27.40625 21.113281 27.59375 21.15625 27.78125 21.15625 C 27.96875 21.15625 28.160156 21.113281 28.347656 21.113281 C 28.402344 21.113281 28.460938 21.113281 28.460938 21.199219 C 28.460938 21.285156 28.398438 21.3125 28.316406 21.355469 C 28.035156 21.507813 27.957031 21.664063 27.957031 21.957031 L 27.957031 24.550781 C 27.957031 24.789063 27.933594 24.851563 27.867188 24.851563 C 27.808594 24.851563 27.667969 24.71875 27.535156 24.585938 L 25.226563 22.222656 "/>
<path style=" stroke:none;fill-rule:evenodd;fill:rgb(100%,100%,100%);fill-opacity:1;" d="M 30.542969 21.253906 C 30.613281 21.113281 30.640625 21.066406 30.691406 21.066406 C 30.710938 21.066406 30.746094 21.113281 30.777344 21.175781 L 32.121094 24.105469 C 32.21875 24.308594 32.292969 24.570313 32.5 24.628906 C 32.644531 24.671875 32.722656 24.6875 32.722656 24.773438 C 32.722656 24.859375 32.671875 24.859375 32.585938 24.859375 C 32.328125 24.859375 32.066406 24.816406 31.832031 24.816406 C 31.59375 24.816406 31.335938 24.859375 31.078125 24.859375 C 31.003906 24.859375 30.96875 24.820313 30.96875 24.789063 C 30.96875 24.722656 31.027344 24.675781 31.109375 24.671875 C 31.25 24.644531 31.335938 24.519531 31.335938 24.378906 C 31.335938 24.246094 31.175781 23.78125 31.09375 23.703125 C 31.023438 23.632813 30.921875 23.609375 30.65625 23.609375 L 29.835938 23.609375 C 29.558594 23.609375 29.40625 24.152344 29.40625 24.386719 C 29.40625 24.464844 29.542969 24.570313 29.65625 24.601563 C 29.808594 24.644531 30.007813 24.6875 30.007813 24.773438 C 30.007813 24.859375 29.949219 24.859375 29.859375 24.859375 C 29.679688 24.859375 29.496094 24.816406 29.3125 24.816406 C 29.128906 24.816406 28.945313 24.859375 28.761719 24.859375 C 28.6875 24.859375 28.621094 24.859375 28.621094 24.773438 C 28.621094 24.6875 28.757813 24.65625 28.832031 24.601563 C 28.921875 24.535156 28.96875 24.476563 29.011719 24.390625 L 30.542969 21.253906 M 29.925781 23.097656 C 29.886719 23.175781 29.867188 23.234375 29.867188 23.25 C 29.867188 23.296875 29.957031 23.316406 30.09375 23.316406 L 30.675781 23.316406 C 30.847656 23.316406 30.910156 23.304688 30.910156 23.28125 C 30.910156 23.25 30.871094 23.152344 30.832031 23.066406 L 30.464844 22.328125 C 30.425781 22.261719 30.402344 22.222656 30.367188 22.222656 C 30.335938 22.222656 30.292969 22.335938 30.28125 22.363281 L 29.925781 23.097656 "/>
<path style=" stroke:none;fill-rule:evenodd;fill:rgb(100%,100%,100%);fill-opacity:1;" d="M 33.863281 21.644531 C 33.863281 21.453125 33.734375 21.410156 33.472656 21.410156 C 32.957031 21.410156 32.726563 21.453125 32.589844 21.984375 C 32.585938 22.019531 32.554688 22.035156 32.496094 22.035156 C 32.417969 22.035156 32.398438 22 32.398438 21.96875 C 32.398438 21.921875 32.40625 21.84375 32.414063 21.785156 L 32.46875 21.238281 C 32.476563 21.140625 32.503906 21.113281 32.628906 21.113281 C 33.179688 21.113281 33.722656 21.15625 34.273438 21.15625 C 34.820313 21.15625 35.375 21.113281 35.914063 21.113281 C 36.046875 21.113281 36.066406 21.128906 36.082031 21.3125 L 36.136719 21.859375 C 36.140625 21.898438 36.144531 21.941406 36.144531 21.980469 C 36.144531 22.011719 36.09375 22.035156 36.046875 22.035156 C 35.984375 22.035156 35.957031 22.019531 35.953125 21.984375 C 35.816406 21.453125 35.585938 21.410156 35.066406 21.410156 C 34.773438 21.410156 34.679688 21.46875 34.679688 21.644531 L 34.679688 24.144531 C 34.679688 24.570313 35.046875 24.5625 35.226563 24.644531 C 35.28125 24.671875 35.375 24.65625 35.375 24.773438 C 35.375 24.859375 35.3125 24.859375 35.246094 24.859375 C 34.929688 24.859375 34.601563 24.816406 34.273438 24.816406 C 33.941406 24.816406 33.617188 24.859375 33.296875 24.859375 C 33.230469 24.859375 33.167969 24.859375 33.167969 24.773438 C 33.167969 24.65625 33.257813 24.671875 33.320313 24.644531 C 33.496094 24.5625 33.863281 24.570313 33.863281 24.144531 L 33.863281 21.644531 "/>
<path style=" stroke:none;fill-rule:evenodd;fill:rgb(100%,100%,100%);fill-opacity:1;" d="M 37.722656 24.199219 C 37.722656 24.53125 38.019531 24.632813 38.136719 24.644531 C 38.207031 24.648438 38.25 24.6875 38.25 24.773438 C 38.25 24.859375 38.09375 24.859375 37.9375 24.859375 C 37.773438 24.859375 37.554688 24.816406 37.339844 24.816406 C 37.125 24.816406 36.910156 24.859375 36.695313 24.859375 C 36.59375 24.859375 36.511719 24.859375 36.511719 24.773438 C 36.511719 24.6875 36.601563 24.660156 36.65625 24.644531 C 36.867188 24.578125 36.902344 24.375 36.902344 24.199219 L 36.902344 21.773438 C 36.902344 21.441406 36.722656 21.34375 36.496094 21.328125 C 36.425781 21.324219 36.382813 21.285156 36.382813 21.199219 C 36.382813 21.113281 36.539063 21.113281 36.695313 21.113281 C 36.910156 21.113281 37.125 21.15625 37.339844 21.15625 C 37.554688 21.15625 37.773438 21.113281 37.984375 21.113281 C 38.0625 21.113281 38.144531 21.113281 38.144531 21.199219 C 38.144531 21.285156 37.996094 21.3125 37.941406 21.328125 C 37.734375 21.394531 37.722656 21.597656 37.722656 21.773438 L 37.722656 24.199219 "/>
<path style=" stroke:none;fill-rule:evenodd;fill:rgb(100%,100%,100%);fill-opacity:1;" d="M 40.753906 21.066406 C 41.855469 21.066406 42.722656 21.78125 42.722656 22.921875 C 42.722656 24.132813 41.636719 24.90625 40.515625 24.90625 C 39.414063 24.90625 38.59375 24.175781 38.59375 23.082031 C 38.59375 21.925781 39.632813 21.066406 40.753906 21.066406 M 40.769531 24.664063 C 41.40625 24.664063 41.851563 23.988281 41.851563 23.21875 C 41.851563 22.484375 41.410156 21.308594 40.550781 21.308594 C 39.914063 21.308594 39.46875 21.984375 39.46875 22.753906 C 39.46875 23.488281 39.90625 24.664063 40.769531 24.664063 "/>
<path style=" stroke:none;fill-rule:evenodd;fill:rgb(100%,100%,100%);fill-opacity:1;" d="M 44.140625 22.222656 C 44.027344 22.109375 43.914063 22.007813 43.886719 22.007813 C 43.859375 22.007813 43.84375 22.023438 43.84375 22.152344 L 43.84375 24.074219 C 43.84375 24.335938 43.933594 24.535156 44.195313 24.617188 C 44.328125 24.660156 44.507813 24.648438 44.507813 24.75 C 44.507813 24.859375 44.378906 24.859375 44.28125 24.859375 C 44.09375 24.859375 43.902344 24.816406 43.714844 24.816406 C 43.527344 24.816406 43.339844 24.859375 43.148438 24.859375 C 43.097656 24.859375 43.035156 24.859375 43.035156 24.773438 C 43.035156 24.6875 43.101563 24.660156 43.179688 24.617188 C 43.460938 24.464844 43.550781 24.308594 43.550781 24.015625 L 43.550781 21.984375 C 43.550781 21.78125 43.46875 21.484375 43.269531 21.386719 C 43.089844 21.300781 43.015625 21.285156 43.015625 21.199219 C 43.015625 21.113281 43.046875 21.113281 43.085938 21.113281 C 43.246094 21.113281 43.40625 21.136719 43.570313 21.136719 C 43.730469 21.136719 43.894531 21.113281 44.054688 21.113281 C 44.171875 21.113281 44.210938 21.128906 44.257813 21.183594 L 46.339844 23.339844 C 46.417969 23.417969 46.492188 23.488281 46.527344 23.488281 C 46.570313 23.488281 46.574219 23.410156 46.574219 23.335938 L 46.574219 22.113281 C 46.574219 21.757813 46.550781 21.429688 46.21875 21.355469 C 46.078125 21.324219 45.933594 21.285156 45.933594 21.199219 C 45.933594 21.113281 46.035156 21.113281 46.132813 21.113281 C 46.320313 21.113281 46.507813 21.15625 46.699219 21.15625 C 46.886719 21.15625 47.074219 21.113281 47.261719 21.113281 C 47.316406 21.113281 47.375 21.113281 47.375 21.199219 C 47.375 21.285156 47.308594 21.3125 47.230469 21.355469 C 46.949219 21.507813 46.871094 21.664063 46.871094 21.957031 L 46.871094 24.550781 C 46.871094 24.789063 46.847656 24.851563 46.785156 24.851563 C 46.722656 24.851563 46.582031 24.71875 46.449219 24.585938 L 44.140625 22.222656 "/>
<path style=" stroke:none;fill-rule:evenodd;fill:rgb(100%,100%,100%);fill-opacity:1;" d="M 49.457031 21.253906 C 49.527344 21.113281 49.554688 21.066406 49.601563 21.066406 C 49.628906 21.066406 49.660156 21.113281 49.691406 21.175781 L 51.035156 24.105469 C 51.132813 24.308594 51.207031 24.570313 51.414063 24.628906 C 51.558594 24.671875 51.640625 24.6875 51.640625 24.773438 C 51.640625 24.859375 51.585938 24.859375 51.5 24.859375 C 51.242188 24.859375 50.984375 24.816406 50.746094 24.816406 C 50.507813 24.816406 50.253906 24.859375 49.992188 24.859375 C 49.917969 24.859375 49.886719 24.820313 49.886719 24.789063 C 49.886719 24.722656 49.945313 24.675781 50.023438 24.671875 C 50.164063 24.644531 50.253906 24.519531 50.253906 24.378906 C 50.253906 24.246094 50.089844 23.78125 50.007813 23.703125 C 49.941406 23.632813 49.835938 23.609375 49.570313 23.609375 L 48.75 23.609375 C 48.472656 23.609375 48.324219 24.152344 48.324219 24.386719 C 48.324219 24.464844 48.457031 24.570313 48.570313 24.601563 C 48.722656 24.644531 48.921875 24.6875 48.921875 24.773438 C 48.921875 24.859375 48.859375 24.859375 48.777344 24.859375 C 48.59375 24.859375 48.410156 24.816406 48.226563 24.816406 C 48.046875 24.816406 47.859375 24.859375 47.675781 24.859375 C 47.601563 24.859375 47.535156 24.859375 47.535156 24.773438 C 47.535156 24.6875 47.671875 24.65625 47.746094 24.601563 C 47.839844 24.535156 47.882813 24.476563 47.925781 24.390625 L 49.457031 21.253906 M 48.839844 23.097656 C 48.800781 23.175781 48.78125 23.234375 48.78125 23.25 C 48.78125 23.296875 48.871094 23.316406 49.007813 23.316406 L 49.589844 23.316406 C 49.761719 23.316406 49.824219 23.304688 49.824219 23.28125 C 49.824219 23.25 49.785156 23.152344 49.742188 23.066406 L 49.378906 22.328125 C 49.339844 22.261719 49.320313 22.222656 49.28125 22.222656 C 49.25 22.222656 49.207031 22.335938 49.195313 22.363281 L 48.839844 23.097656 "/>
<path style=" stroke:none;fill-rule:evenodd;fill:rgb(100%,100%,100%);fill-opacity:1;" d="M 52.285156 21.773438 C 52.285156 21.441406 52.101563 21.328125 51.878906 21.328125 C 51.804688 21.328125 51.765625 21.285156 51.765625 21.210938 C 51.765625 21.15625 51.800781 21.113281 51.859375 21.113281 C 52.117188 21.113281 52.382813 21.15625 52.640625 21.15625 C 52.90625 21.15625 53.164063 21.113281 53.367188 21.113281 C 53.441406 21.113281 53.523438 21.113281 53.523438 21.199219 C 53.523438 21.285156 53.433594 21.3125 53.378906 21.328125 C 53.167969 21.394531 53.105469 21.597656 53.105469 21.773438 L 53.105469 24.105469 C 53.105469 24.515625 53.167969 24.5625 53.441406 24.5625 C 54.007813 24.5625 54.320313 24.390625 54.503906 24.214844 C 54.6875 24.035156 54.746094 23.859375 54.878906 23.859375 C 54.957031 23.859375 55.003906 23.957031 55.003906 24.074219 C 55.003906 24.515625 54.582031 24.859375 54.160156 24.859375 C 53.800781 24.859375 53.058594 24.816406 52.703125 24.816406 C 52.503906 24.816406 52.300781 24.859375 52.101563 24.859375 C 51.976563 24.859375 51.878906 24.859375 51.878906 24.773438 C 51.878906 24.6875 51.964844 24.675781 52.082031 24.601563 C 52.265625 24.480469 52.285156 24.285156 52.285156 24.105469 L 52.285156 21.773438 "/>
<path style=" stroke:none;fill-rule:evenodd;fill:rgb(100%,100%,100%);fill-opacity:1;" d="M 12.445313 14.5625 L 12.296875 13.21875 C 12.292969 13.207031 12.292969 13.195313 12.289063 13.183594 C 12.285156 13.171875 12.28125 13.167969 12.273438 13.160156 C 12.269531 13.152344 12.265625 13.148438 12.261719 13.144531 C 12.242188 13.125 12.226563 13.117188 12.210938 13.113281 C 12.207031 13.113281 12.199219 13.109375 12.191406 13.109375 C 12.183594 13.109375 12.175781 13.109375 12.164063 13.109375 C 12.15625 13.109375 12.144531 13.109375 12.128906 13.109375 C 12.117188 13.113281 12.105469 13.113281 12.09375 13.117188 C 12.074219 13.121094 12.054688 13.132813 12.035156 13.144531 C 12.027344 13.148438 12.019531 13.15625 12.007813 13.164063 C 12 13.175781 11.988281 13.183594 11.972656 13.210938 C 11.957031 13.234375 11.933594 13.273438 11.917969 13.300781 C 11.902344 13.328125 11.890625 13.34375 11.878906 13.355469 C 11.859375 13.378906 11.84375 13.386719 11.824219 13.398438 C 11.816406 13.402344 11.808594 13.40625 11.796875 13.40625 C 11.777344 13.414063 11.757813 13.414063 11.734375 13.414063 C 11.648438 13.402344 11.570313 13.382813 11.355469 13.308594 C 11.144531 13.234375 10.800781 13.109375 10.546875 13.03125 C 10.289063 12.957031 10.121094 12.933594 9.96875 12.917969 C 9.816406 12.902344 9.679688 12.890625 9.542969 12.890625 C 9.269531 12.890625 8.992188 12.917969 8.738281 12.96875 C 8.484375 13.015625 8.25 13.089844 8.039063 13.175781 C 7.828125 13.261719 7.636719 13.363281 7.464844 13.476563 C 7.292969 13.589844 7.144531 13.714844 7.007813 13.847656 C 6.871094 13.984375 6.75 14.125 6.644531 14.277344 C 6.539063 14.429688 6.445313 14.59375 6.363281 14.769531 C 6.28125 14.941406 6.214844 15.125 6.160156 15.320313 C 6.105469 15.519531 6.0625 15.726563 6.03125 15.953125 C 6.003906 16.175781 5.988281 16.414063 5.988281 16.648438 C 5.992188 16.882813 6.011719 17.117188 6.054688 17.339844 C 6.101563 17.5625 6.167969 17.78125 6.257813 17.988281 C 6.351563 18.195313 6.464844 18.398438 6.605469 18.589844 C 6.75 18.78125 6.917969 18.960938 7.113281 19.125 C 7.308594 19.289063 7.53125 19.441406 7.777344 19.566406 C 8.023438 19.691406 8.292969 19.789063 8.570313 19.855469 C 8.976563 19.957031 9.394531 19.980469 9.808594 19.9375 C 9.941406 19.925781 10.074219 19.90625 10.207031 19.878906 C 10.335938 19.847656 10.46875 19.8125 10.605469 19.765625 C 10.738281 19.722656 10.875 19.667969 11.007813 19.601563 C 11.144531 19.535156 11.28125 19.460938 11.417969 19.371094 C 11.558594 19.28125 11.699219 19.175781 11.835938 19.054688 C 11.96875 18.933594 12.105469 18.800781 12.21875 18.660156 C 12.332031 18.523438 12.421875 18.378906 12.480469 18.277344 C 12.535156 18.171875 12.558594 18.105469 12.566406 18.039063 C 12.566406 18.023438 12.5625 18.011719 12.5625 18 C 12.5625 17.988281 12.558594 17.976563 12.554688 17.96875 C 12.554688 17.960938 12.550781 17.957031 12.546875 17.949219 C 12.546875 17.945313 12.542969 17.9375 12.539063 17.933594 C 12.535156 17.929688 12.53125 17.925781 12.527344 17.921875 C 12.523438 17.917969 12.519531 17.914063 12.515625 17.914063 C 12.507813 17.910156 12.503906 17.90625 12.5 17.90625 C 12.484375 17.902344 12.472656 17.898438 12.457031 17.898438 C 12.445313 17.898438 12.429688 17.902344 12.417969 17.902344 C 12.402344 17.90625 12.390625 17.910156 12.371094 17.917969 C 12.355469 17.921875 12.339844 17.933594 12.316406 17.945313 C 12.296875 17.957031 12.269531 17.976563 12.21875 18.019531 C 12.171875 18.066406 12.097656 18.140625 12.03125 18.21875 C 11.863281 18.382813 11.675781 18.53125 11.488281 18.65625 C 11.304688 18.78125 11.113281 18.878906 10.925781 18.957031 C 10.742188 19.03125 10.566406 19.082031 10.394531 19.117188 C 10.222656 19.152344 10.0625 19.167969 9.910156 19.167969 C 9.757813 19.167969 9.613281 19.148438 9.46875 19.113281 C 9.328125 19.082031 9.183594 19.027344 9.039063 18.953125 C 8.898438 18.878906 8.753906 18.78125 8.617188 18.660156 C 8.480469 18.539063 8.34375 18.394531 8.21875 18.222656 C 8.09375 18.050781 7.980469 17.851563 7.886719 17.636719 C 7.792969 17.417969 7.71875 17.183594 7.667969 16.941406 C 7.621094 16.699219 7.59375 16.453125 7.59375 16.183594 C 7.59375 15.910156 7.613281 15.617188 7.648438 15.359375 C 7.6875 15.105469 7.738281 14.890625 7.804688 14.703125 C 7.867188 14.515625 7.941406 14.355469 8.027344 14.214844 C 8.113281 14.078125 8.207031 13.957031 8.3125 13.851563 C 8.421875 13.75 8.539063 13.660156 8.675781 13.585938 C 8.8125 13.511719 8.96875 13.449219 9.15625 13.402344 C 9.339844 13.359375 9.554688 13.335938 9.761719 13.335938 C 9.96875 13.339844 10.167969 13.367188 10.363281 13.429688 C 10.5625 13.488281 10.761719 13.585938 10.960938 13.71875 C 11.160156 13.851563 11.359375 14.023438 11.554688 14.242188 C 11.75 14.460938 11.941406 14.726563 12.097656 15.007813 C 12.132813 15.070313 12.167969 15.132813 12.191406 15.171875 C 12.21875 15.210938 12.234375 15.230469 12.246094 15.246094 C 12.261719 15.261719 12.273438 15.269531 12.28125 15.277344 C 12.292969 15.285156 12.300781 15.292969 12.308594 15.296875 C 12.316406 15.300781 12.324219 15.304688 12.332031 15.308594 C 12.351563 15.316406 12.367188 15.316406 12.386719 15.316406 C 12.410156 15.308594 12.4375 15.296875 12.464844 15.261719 C 12.46875 15.253906 12.476563 15.242188 12.480469 15.230469 C 12.488281 15.21875 12.492188 15.207031 12.5 15.191406 C 12.503906 15.171875 12.507813 15.15625 12.511719 15.136719 C 12.515625 15.117188 12.515625 15.097656 12.515625 15.078125 C 12.515625 15.058594 12.515625 15.039063 12.511719 15 C 12.503906 14.960938 12.496094 14.902344 12.484375 14.828125 C 12.472656 14.75 12.460938 14.65625 12.445313 14.5625 "/>
<path style=" stroke:none;fill-rule:evenodd;fill:rgb(100%,100%,100%);fill-opacity:1;" d="M 17.160156 12.890625 C 19.191406 12.890625 20.785156 14.207031 20.785156 16.304688 C 20.785156 18.535156 18.785156 19.957031 16.722656 19.957031 C 14.695313 19.957031 13.1875 18.613281 13.1875 16.601563 C 13.1875 14.472656 15.101563 12.890625 17.160156 12.890625 M 17.191406 19.511719 C 18.359375 19.511719 19.179688 18.265625 19.179688 16.851563 C 19.179688 15.503906 18.367188 13.335938 16.78125 13.335938 C 15.613281 13.335938 14.792969 14.582031 14.792969 16 C 14.792969 17.34375 15.605469 19.511719 17.191406 19.511719 "/>
<path style=" stroke:none;fill-rule:evenodd;fill:rgb(100%,100%,100%);fill-opacity:1;" d="M 22.121094 14.199219 C 22.121094 13.585938 21.785156 13.375 21.367188 13.375 C 21.238281 13.375 21.160156 13.296875 21.160156 13.15625 C 21.160156 13.058594 21.230469 12.980469 21.339844 12.980469 C 21.8125 12.980469 22.300781 13.058594 22.773438 13.058594 C 23.261719 13.058594 23.734375 12.980469 24.113281 12.980469 C 24.25 12.980469 24.398438 12.980469 24.398438 13.140625 C 24.398438 13.296875 24.230469 13.347656 24.132813 13.375 C 23.746094 13.496094 23.625 13.871094 23.625 14.199219 L 23.625 18.484375 C 23.625 19.234375 23.746094 19.324219 24.25 19.324219 C 25.289063 19.324219 25.863281 19.007813 26.203125 18.679688 C 26.539063 18.355469 26.648438 18.027344 26.894531 18.027344 C 27.03125 18.027344 27.121094 18.207031 27.121094 18.425781 C 27.121094 19.234375 26.339844 19.871094 25.566406 19.871094 C 24.902344 19.871094 23.546875 19.789063 22.882813 19.789063 C 22.515625 19.789063 22.152344 19.871094 21.785156 19.871094 C 21.554688 19.871094 21.367188 19.871094 21.367188 19.710938 C 21.367188 19.550781 21.527344 19.53125 21.746094 19.394531 C 22.082031 19.175781 22.121094 18.808594 22.121094 18.484375 L 22.121094 14.199219 "/>
<path style=" stroke:none;fill-rule:evenodd;fill:rgb(100%,100%,100%);fill-opacity:1;" d="M 28.171875 14.199219 C 28.171875 13.585938 27.835938 13.375 27.417969 13.375 C 27.289063 13.375 27.210938 13.296875 27.210938 13.15625 C 27.210938 13.058594 27.28125 12.980469 27.390625 12.980469 C 27.863281 12.980469 28.351563 13.058594 28.824219 13.058594 C 29.308594 13.058594 29.785156 12.980469 30.160156 12.980469 C 30.300781 12.980469 30.449219 12.980469 30.449219 13.140625 C 30.449219 13.296875 30.28125 13.347656 30.183594 13.375 C 29.796875 13.496094 29.675781 13.871094 29.675781 14.199219 L 29.675781 18.484375 C 29.675781 19.234375 29.796875 19.324219 30.300781 19.324219 C 31.339844 19.324219 31.914063 19.007813 32.25 18.679688 C 32.589844 18.355469 32.699219 18.027344 32.945313 18.027344 C 33.082031 18.027344 33.171875 18.207031 33.171875 18.425781 C 33.171875 19.234375 32.390625 19.871094 31.617188 19.871094 C 30.957031 19.871094 29.597656 19.789063 28.933594 19.789063 C 28.566406 19.789063 28.203125 19.871094 27.835938 19.871094 C 27.605469 19.871094 27.417969 19.871094 27.417969 19.710938 C 27.417969 19.550781 27.578125 19.53125 27.796875 19.394531 C 28.132813 19.175781 28.171875 18.808594 28.171875 18.484375 L 28.171875 14.199219 "/>
<path style=" stroke:none;fill-rule:evenodd;fill:rgb(100%,100%,100%);fill-opacity:1;" d="M 35.886719 18.652344 C 35.886719 19.265625 36.429688 19.453125 36.648438 19.472656 C 36.777344 19.484375 36.855469 19.550781 36.855469 19.710938 C 36.855469 19.871094 36.570313 19.871094 36.28125 19.871094 C 35.976563 19.871094 35.578125 19.789063 35.183594 19.789063 C 34.785156 19.789063 34.390625 19.871094 33.992188 19.871094 C 33.804688 19.871094 33.65625 19.871094 33.65625 19.710938 C 33.65625 19.550781 33.828125 19.503906 33.925781 19.472656 C 34.3125 19.355469 34.378906 18.980469 34.378906 18.652344 L 34.378906 14.199219 C 34.378906 13.585938 34.042969 13.40625 33.628906 13.375 C 33.5 13.367188 33.421875 13.296875 33.421875 13.140625 C 33.421875 12.980469 33.707031 12.980469 33.992188 12.980469 C 34.390625 12.980469 34.785156 13.058594 35.183594 13.058594 C 35.578125 13.058594 35.976563 12.980469 36.371094 12.980469 C 36.511719 12.980469 36.65625 12.980469 36.65625 13.140625 C 36.65625 13.296875 36.390625 13.347656 36.292969 13.375 C 35.90625 13.496094 35.886719 13.871094 35.886719 14.199219 L 35.886719 18.652344 "/>
<path style=" stroke:none;fill-rule:evenodd;fill:rgb(100%,100%,100%);fill-opacity:1;" d="M 38.125 14.703125 C 38.125 14.21875 38.074219 13.476563 37.660156 13.425781 C 37.351563 13.386719 37.144531 13.296875 37.144531 13.140625 C 37.144531 12.980469 37.3125 12.980469 37.507813 12.980469 C 38.273438 13.078125 39.035156 13.050781 39.796875 13.058594 C 40.558594 13.058594 41.324219 12.980469 42.085938 12.980469 C 42.3125 12.980469 42.511719 12.980469 42.511719 13.179688 C 42.511719 13.394531 42.472656 13.613281 42.472656 13.832031 C 42.472656 14.050781 42.511719 14.265625 42.511719 14.484375 C 42.511719 14.59375 42.480469 14.671875 42.332031 14.671875 C 42.171875 14.671875 42.144531 14.496094 42.132813 14.40625 C 42.066406 13.78125 41.777344 13.523438 40.617188 13.523438 L 39.976563 13.523438 C 39.699219 13.523438 39.628906 13.613281 39.628906 14 L 39.628906 15.730469 C 39.628906 15.890625 39.796875 15.941406 40.195313 15.941406 C 40.769531 15.941406 41.203125 15.773438 41.363281 15.34375 C 41.46875 15.070313 41.511719 15.039063 41.609375 15.039063 C 41.757813 15.039063 41.757813 15.175781 41.757813 15.316406 C 41.757813 15.613281 41.71875 15.910156 41.71875 16.207031 C 41.71875 16.503906 41.757813 16.800781 41.757813 17.097656 C 41.757813 17.234375 41.757813 17.375 41.570313 17.375 C 41.421875 17.375 41.421875 17.078125 41.300781 16.878906 C 41.054688 16.472656 40.769531 16.414063 40.195313 16.414063 C 39.71875 16.414063 39.628906 16.542969 39.628906 16.789063 L 39.628906 18.484375 C 39.628906 19.214844 39.757813 19.324219 40.28125 19.324219 C 41.324219 19.324219 41.898438 19.007813 42.234375 18.679688 C 42.570313 18.355469 42.667969 18.019531 42.828125 18.019531 C 42.945313 18.019531 42.988281 18.109375 42.988281 18.207031 C 42.988281 18.40625 42.90625 18.789063 42.835938 18.988281 C 42.710938 19.382813 42.265625 19.871094 41.796875 19.871094 C 41.136719 19.871094 40.472656 19.789063 39.808594 19.789063 C 39.144531 19.789063 38.480469 19.871094 37.816406 19.871094 C 37.507813 19.871094 37.359375 19.871094 37.359375 19.710938 C 37.359375 19.550781 37.558594 19.484375 37.738281 19.394531 C 38.0625 19.234375 38.125 19 38.125 18.433594 L 38.125 14.703125 "/>
<path style=" stroke:none;fill-rule:evenodd;fill:rgb(100%,100%,100%);fill-opacity:1;" d="M 44.242188 14.199219 C 44.242188 13.613281 43.90625 13.433594 43.492188 13.375 C 43.363281 13.355469 43.28125 13.296875 43.28125 13.140625 C 43.28125 13.039063 43.324219 12.980469 43.558594 12.980469 C 43.796875 12.980469 44.066406 13.058594 44.769531 13.058594 C 45.304688 13.058594 46.035156 12.980469 46.472656 12.980469 C 47.796875 12.980469 49.175781 13.226563 49.175781 14.859375 C 49.175781 15.535156 48.839844 15.878906 48.433594 16.117188 C 48.234375 16.226563 47.949219 16.285156 47.949219 16.386719 C 47.949219 16.535156 49.058594 18.511719 49.542969 19.058594 C 49.640625 19.167969 49.71875 19.226563 49.808594 19.226563 C 49.917969 19.226563 50.027344 19.195313 50.117188 19.195313 C 50.234375 19.195313 50.277344 19.265625 50.277344 19.375 C 50.277344 19.800781 49.105469 19.859375 48.78125 19.859375 C 48.492188 19.859375 48.144531 19.660156 47.925781 19.265625 L 46.769531 17.148438 C 46.601563 16.839844 46.441406 16.59375 46.074219 16.59375 C 45.820313 16.59375 45.75 16.644531 45.75 16.773438 L 45.75 18.453125 C 45.75 19.265625 46.085938 19.445313 46.503906 19.472656 C 46.628906 19.484375 46.710938 19.550781 46.710938 19.710938 C 46.710938 19.839844 46.589844 19.871094 46.136719 19.871094 C 45.738281 19.871094 45.34375 19.789063 44.949219 19.789063 C 44.550781 19.789063 44.15625 19.871094 43.757813 19.871094 C 43.621094 19.871094 43.472656 19.871094 43.472656 19.710938 C 43.472656 19.550781 43.640625 19.503906 43.738281 19.472656 C 44.125 19.355469 44.242188 18.980469 44.242188 18.652344 L 44.242188 14.199219 M 45.75 15.820313 C 45.75 15.941406 45.75 16.167969 46.382813 16.167969 C 47.273438 16.167969 47.640625 15.753906 47.640625 14.761719 C 47.640625 14.050781 47.214844 13.355469 46.363281 13.355469 C 45.839844 13.355469 45.75 13.515625 45.75 13.871094 L 45.75 15.820313 "/>
<path style=" stroke:none;fill-rule:evenodd;fill:rgb(100%,100%,100%);fill-opacity:1;" d="M 50.691406 18.089844 C 50.671875 18 50.621094 17.859375 50.621094 17.773438 C 50.621094 17.703125 50.660156 17.621094 50.832031 17.621094 C 51.027344 17.621094 51.078125 17.890625 51.144531 18.039063 C 51.511719 18.820313 52.226563 19.511719 53.15625 19.511719 C 53.851563 19.511719 54.414063 19.085938 54.414063 18.363281 C 54.414063 16.75 50.742188 17.535156 50.742188 14.832031 C 50.742188 13.8125 51.574219 12.890625 52.742188 12.890625 C 53.582031 12.890625 54.085938 13.277344 54.414063 13.277344 C 54.523438 13.277344 54.742188 13.140625 54.828125 13.140625 C 54.960938 13.140625 54.988281 13.199219 54.988281 13.328125 C 54.96875 13.890625 55.128906 14.792969 55.128906 14.902344 C 55.128906 15.03125 55.066406 15.117188 54.929688 15.117188 C 54.75 15.117188 54.710938 14.960938 54.632813 14.710938 C 54.40625 13.988281 53.5625 13.335938 52.808594 13.335938 C 52.207031 13.335938 51.679688 13.683594 51.679688 14.246094 C 51.679688 15.929688 55.355469 15.039063 55.355469 17.773438 C 55.355469 18.730469 54.601563 19.957031 53.128906 19.957031 C 52.492188 19.957031 51.9375 19.75 51.335938 19.632813 C 51.234375 19.613281 51.078125 19.601563 51.035156 19.464844 L 50.691406 18.089844 "/>
<path style=" stroke:none;fill-rule:evenodd;fill:rgb(100%,70.117188%,9.812927%);fill-opacity:1;" d="M 0.71875 41.054688 L 60.914063 41.054688 L 60.914063 37.050781 L 0.71875 37.050781 Z M 0.71875 41.054688 "/>
<path style=" stroke:none;fill-rule:evenodd;fill:rgb(0%,92.1875%,100%);fill-opacity:1;" d="M 0.71875 45.058594 L 60.914063 45.058594 L 60.914063 41.054688 L 0.71875 41.054688 Z M 0.71875 45.058594 "/>
<path style=" stroke:none;fill-rule:evenodd;fill:rgb(100%,0%,9.812927%);fill-opacity:1;" d="M 0.71875 49.042969 L 60.914063 49.042969 L 60.914063 45.058594 L 0.71875 45.058594 Z M 0.71875 49.042969 "/>
</g>
</svg>
