<?xml version="1.0" encoding="UTF-8"?>
<svg xmlns="http://www.w3.org/2000/svg" xmlns:xlink="http://www.w3.org/1999/xlink" width="255.11pt" height="27.55pt" viewBox="0 0 255.11 27.55" version="1.1">
<defs>
<clipPath id="clip1">
  <path d="M 235 0 L 255.109375 0 L 255.109375 27.550781 L 235 27.550781 Z M 235 0 "/>
</clipPath>
<clipPath id="clip2">
  <path d="M 0 0 L 18 0 L 18 27.550781 L 0 27.550781 Z M 0 0 "/>
</clipPath>
<clipPath id="clip3">
  <path d="M 157 0 L 176 0 L 176 27.550781 L 157 27.550781 Z M 157 0 "/>
</clipPath>
</defs>
<g id="surface1">
<g clip-path="url(#clip1)" clip-rule="nonzero">
<path style=" stroke:none;fill-rule:evenodd;fill:rgb(61.199951%,61.599731%,62.399292%);fill-opacity:1;" d="M 255.113281 23.144531 C 255.113281 25.578125 252.976563 27.550781 250.339844 27.550781 L 240.109375 27.550781 C 237.472656 27.550781 235.335938 25.578125 235.335938 23.144531 L 235.335938 4.492188 C 235.335938 2.058594 237.472656 0.0820313 240.109375 0.0820313 L 250.339844 0.0820313 C 252.976563 0.0820313 255.113281 2.058594 255.113281 4.492188 "/>
</g>
<g clip-path="url(#clip2)" clip-rule="nonzero">
<path style=" stroke:none;fill-rule:evenodd;fill:rgb(9.799194%,8.999634%,10.598755%);fill-opacity:1;" d="M 14.238281 8.539063 C 13.320313 11.773438 9.996094 13.226563 8.75 13.429688 C 7.5 13.628906 5.109375 13.429688 5.109375 13.429688 C 5.109375 13.429688 6.089844 8.257813 6.425781 6.492188 L 7.429688 2.054688 C 7.429688 2.054688 11.941406 1.703125 13.039063 2.652344 C 14.136719 3.601563 15.199219 5.152344 14.238281 8.539063 M 17.542969 4.753906 C 17.027344 0.277344 11.664063 0.246094 10.203125 0.277344 C 8.738281 0.304688 4.59375 0.277344 4.59375 0.277344 C 4.59375 0.277344 3.011719 12.21875 2.859375 13.042969 C 2.707031 13.867188 0 27.550781 0 27.550781 L 3.039063 27.550781 L 4.929688 15.207031 C 6.667969 15.328125 10.050781 15.417969 12.820313 13.816406 C 15.59375 12.214844 18.0625 9.234375 17.542969 4.753906 "/>
</g>
<path style=" stroke:none;fill-rule:evenodd;fill:rgb(9.799194%,8.999634%,10.598755%);fill-opacity:1;" d="M 19.25 12.800781 L 20.011719 7.757813 L 20.789063 7.757813 C 20.789063 7.757813 22.785156 7.632813 23.394531 8.6875 C 23.921875 9.59375 23.4375 11.457031 22.308594 12.1875 C 21.183594 12.917969 19.707031 12.921875 19.25 12.800781 M 22.054688 14.03125 C 25.285156 13.710938 26.3125 10.621094 25.921875 8.5625 C 25.730469 7.539063 24.929688 6.980469 24.003906 6.726563 C 22.941406 6.433594 21.683594 6.453125 21.683594 6.453125 L 17.839844 6.453125 C 17.839844 6.453125 17.179688 12.496094 16.996094 13.40625 C 16.8125 14.324219 15.605469 21.179688 15.605469 21.179688 L 18 21.179688 L 19.039063 14.199219 L 19.648438 14.199219 L 23.394531 21.179688 L 26.105469 21.179688 "/>
<path style=" stroke:none;fill-rule:evenodd;fill:rgb(9.799194%,8.999634%,10.598755%);fill-opacity:1;" d="M 96.21875 12.847656 L 97.015625 7.769531 L 97.761719 7.769531 C 97.761719 7.769531 99.515625 7.664063 100.101563 8.71875 C 100.605469 9.628906 100.167969 11.402344 99.085938 12.132813 C 98.007813 12.863281 96.65625 12.96875 96.21875 12.847656 M 98.769531 14.03125 C 101.863281 13.710938 103.058594 10.664063 102.6875 8.605469 C 102.503906 7.578125 101.601563 6.925781 100.710938 6.671875 C 99.695313 6.378906 98.484375 6.394531 98.484375 6.394531 L 94.800781 6.394531 C 94.800781 6.394531 94.167969 12.4375 93.992188 13.351563 C 93.820313 14.265625 92.660156 21.214844 92.660156 21.214844 L 94.957031 21.214844 L 95.929688 14.195313 L 96.320313 14.195313 L 99.621094 21.214844 L 102.25 21.214844 "/>
<path style=" stroke:none;fill-rule:evenodd;fill:rgb(9.799194%,8.999634%,10.598755%);fill-opacity:1;" d="M 29.183594 6.371094 L 31.804688 6.371094 C 31.804688 6.371094 30.648438 12.464844 30.492188 13.285156 C 30.34375 14.109375 29.429688 20.933594 29.488281 21.179688 L 26.929688 21.179688 C 26.929688 21.179688 28.210938 14.839844 28.300781 14.171875 C 28.390625 13.5 29.214844 7.34375 29.183594 6.371094 "/>
<path style=" stroke:none;fill-rule:evenodd;fill:rgb(9.799194%,8.999634%,10.598755%);fill-opacity:1;" d="M 42.773438 7.375 L 42.164063 9.449219 L 41.796875 9.449219 C 41.796875 9.449219 41.25 7.800781 39.148438 7.773438 C 37.042969 7.738281 34.25 11.4375 34.667969 17.246094 C 35.035156 22.335938 40 19.808594 40.761719 18.710938 L 41.007813 18.738281 L 40.550781 20.660156 C 40.550781 20.660156 37.804688 22.550781 34.851563 21.390625 C 31.898438 20.230469 31.589844 15.175781 32.902344 11.488281 C 34.210938 7.800781 38.050781 4.601563 42.773438 7.375 "/>
<path style=" stroke:none;fill-rule:evenodd;fill:rgb(9.799194%,8.999634%,10.598755%);fill-opacity:1;" d="M 50.421875 19.5625 C 50.421875 19.5625 50.117188 20.171875 50.175781 21.148438 L 42.46875 21.148438 C 42.46875 21.148438 43.503906 15.722656 43.902344 12.859375 C 44.296875 9.996094 44.785156 6.460938 44.785156 6.460938 L 51.914063 6.460938 L 51.671875 4.695313 L 54.109375 4.695313 L 55.296875 19.472656 L 61.054688 4.695313 L 63.371094 4.695313 L 63.980469 19.535156 L 70.46875 4.695313 L 72.511719 4.695313 L 63.828125 23.128906 L 61.941406 23.128906 L 61.390625 8.320313 L 55.234375 23.128906 L 53.378906 23.128906 L 52.035156 8.105469 L 46.976563 7.953125 L 46.125 12.796875 C 46.125 12.796875 49.628906 12.921875 50.117188 12.648438 L 49.964844 14.230469 C 49.964844 14.230469 46.886719 14.019531 45.882813 14.230469 L 45.058594 19.804688 C 45.058594 19.804688 47.527344 19.835938 48.195313 19.804688 C 48.867188 19.777344 50.421875 19.5625 50.421875 19.5625 "/>
<path style=" stroke:none;fill-rule:evenodd;fill:rgb(9.799194%,8.999634%,10.598755%);fill-opacity:1;" d="M 71.566406 15.632813 L 74.796875 9.476563 C 74.734375 9.8125 75.558594 15.632813 75.558594 15.632813 Z M 76.472656 6.371094 L 74.828125 6.371094 L 66.753906 21.148438 L 68.734375 21.148438 L 70.925781 16.789063 L 75.652344 16.882813 L 76.078125 21.148438 L 78.515625 21.148438 "/>
<path style=" stroke:none;fill-rule:evenodd;fill:rgb(9.799194%,8.999634%,10.598755%);fill-opacity:1;" d="M 77.976563 3.324219 L 88.273438 3.324219 C 88.273438 3.324219 87.835938 4.226563 87.925781 4.96875 C 87.925781 4.96875 84.304688 4.878906 84.117188 4.90625 C 84.117188 4.90625 83.265625 9.105469 83.125 10.15625 C 82.988281 11.207031 82.089844 17.640625 82.152344 18.101563 L 79.554688 18.101563 C 79.554688 18.101563 80.636719 12.941406 80.976563 10.714844 C 81.316406 8.488281 81.773438 4.90625 81.773438 4.90625 C 81.773438 4.90625 77.976563 4.929688 77.730469 4.992188 C 77.730469 4.992188 78.039063 4.15625 77.976563 3.324219 "/>
<path style=" stroke:none;fill-rule:evenodd;fill:rgb(9.799194%,8.999634%,10.598755%);fill-opacity:1;" d="M 93.214844 9.492188 C 93.214844 9.492188 92.796875 10.28125 92.914063 11.117188 L 87.601563 10.882813 L 86.746094 15.894531 L 88.550781 15.902344 L 91.382813 15.777344 C 91.382813 15.777344 91.289063 17.027344 91.289063 17.214844 C 91.289063 17.214844 86.90625 17.050781 86.582031 17.214844 L 85.722656 22.847656 C 85.722656 22.847656 89.0625 22.78125 89.78125 22.6875 C 90.5 22.59375 91.082031 22.570313 91.082031 22.570313 C 91.082031 22.570313 90.78125 23.570313 90.871094 24.195313 L 83.171875 24.195313 C 83.171875 24.195313 84.542969 16.773438 84.75 14.941406 C 84.957031 13.109375 85.375 9.492188 85.375 9.492188 L 89.574219 9.492188 "/>
<path style=" stroke:none;fill-rule:evenodd;fill:rgb(9.799194%,8.999634%,10.598755%);fill-opacity:1;" d="M 208.785156 6.414063 C 208.785156 6.414063 208.390625 7.171875 208.507813 8.007813 L 203.199219 7.773438 L 202.324219 12.753906 L 204.136719 12.765625 L 206.964844 12.640625 C 206.964844 12.640625 206.859375 13.949219 206.859375 14.136719 C 206.859375 14.136719 202.476563 13.972656 202.152344 14.136719 L 201.296875 19.777344 C 201.296875 19.777344 204.636719 19.707031 205.351563 19.613281 C 206.070313 19.523438 206.652344 19.5 206.652344 19.5 C 206.652344 19.5 206.351563 20.582031 206.445313 21.210938 L 198.746094 21.210938 C 198.746094 21.210938 200.113281 13.789063 200.320313 11.957031 C 200.53125 10.125 200.949219 6.414063 200.949219 6.414063 L 205.144531 6.414063 "/>
<path style=" stroke:none;fill-rule:evenodd;fill:rgb(9.799194%,8.999634%,10.598755%);fill-opacity:1;" d="M 158.195313 3.828125 C 158.195313 3.828125 157.824219 4.640625 157.9375 5.472656 L 152.828125 5.132813 L 152.023438 10.019531 L 153.742188 10.066406 L 155.875 9.996094 C 155.875 9.996094 155.78125 11.246094 155.78125 11.429688 C 155.78125 11.429688 152.164063 11.175781 151.839844 11.339844 L 151.027344 16.835938 L 157.460938 16.667969 C 157.460938 16.667969 158.242188 17.4375 158.335938 18.0625 L 148.46875 18.0625 C 148.46875 18.0625 149.839844 10.644531 150.046875 8.808594 C 150.257813 6.976563 150.675781 3.828125 150.675781 3.828125 L 154.871094 3.828125 "/>
<path style=" stroke:none;fill-rule:evenodd;fill:rgb(9.799194%,8.999634%,10.598755%);fill-opacity:1;" d="M 104.972656 8.070313 L 107.199219 8.070313 C 107.199219 8.070313 106.300781 13.636719 106.085938 14.007813 C 106.085938 14.007813 110.042969 14.132813 111.527344 14.007813 C 111.527344 14.007813 111.960938 8.78125 112.238281 8.070313 L 114.527344 8.070313 C 114.527344 8.070313 113.351563 14.8125 113.257813 15.304688 C 113.164063 15.800781 112.332031 22.140625 112.394531 22.292969 L 109.980469 22.292969 C 109.980469 22.292969 111.21875 15.554688 111.28125 15.335938 L 105.898438 15.304688 C 105.898438 15.304688 105.097656 21.953125 105.128906 22.292969 L 102.558594 22.292969 C 102.558594 22.292969 103.921875 15.707031 104.136719 14.316406 C 104.351563 12.925781 104.972656 8.070313 104.972656 8.070313 "/>
<path style=" stroke:none;fill-rule:evenodd;fill:rgb(9.799194%,8.999634%,10.598755%);fill-opacity:1;" d="M 125.132813 13.421875 C 124.257813 19.230469 121.605469 20.007813 120.230469 20.007813 C 118.855469 20.007813 116.6875 18.289063 117.957031 12.863281 C 119.226563 7.453125 122.503906 7.667969 122.503906 7.667969 C 122.503906 7.667969 125.996094 7.667969 125.132813 13.421875 M 122.71875 6.371094 C 122.71875 6.371094 117.550781 5.972656 115.628906 12.617188 C 114.078125 17.96875 116.9375 21.179688 119.8125 21.304688 C 122.503906 21.550781 126.625 19.640625 127.421875 13.816406 C 128.472656 6.121094 122.71875 6.371094 122.71875 6.371094 "/>
<path style=" stroke:none;fill-rule:evenodd;fill:rgb(9.799194%,8.999634%,10.598755%);fill-opacity:1;" d="M 176.019531 13.421875 C 175.144531 19.230469 172.492188 20.007813 171.117188 20.007813 C 169.742188 20.007813 167.621094 18.296875 168.929688 12.878906 C 170.300781 7.210938 173.390625 7.667969 173.390625 7.667969 C 173.390625 7.667969 176.886719 7.667969 176.019531 13.421875 M 173.585938 6.277344 C 173.585938 6.277344 168.441406 5.972656 166.515625 12.617188 C 164.964844 17.96875 167.773438 21.273438 170.648438 21.398438 C 173.785156 21.554688 177.132813 19.664063 177.929688 13.839844 C 179.042969 5.78125 173.585938 6.277344 173.585938 6.277344 "/>
<path style=" stroke:none;fill-rule:evenodd;fill:rgb(9.799194%,8.999634%,10.598755%);fill-opacity:1;" d="M 178.105469 14.257813 C 178.980469 8.445313 181.5625 7.769531 182.9375 7.769531 C 184.3125 7.769531 186.3125 9.382813 185.003906 14.796875 C 183.632813 20.464844 180.710938 19.898438 180.710938 19.898438 C 180.710938 19.898438 177.238281 20.011719 178.105469 14.257813 M 180.550781 21.289063 C 180.550781 21.289063 185.683594 21.707031 187.609375 15.0625 C 188.945313 9.300781 186.277344 6.550781 183.402344 6.425781 C 180.265625 6.269531 177.101563 8.035156 176.304688 13.859375 C 175.191406 21.914063 180.550781 21.289063 180.550781 21.289063 "/>
<path style=" stroke:none;fill-rule:evenodd;fill:rgb(9.799194%,8.999634%,10.598755%);fill-opacity:1;" d="M 128.558594 18.554688 C 129.171875 20.777344 131.039063 21.3125 132.730469 21.324219 C 134.425781 21.339844 135.445313 20.917969 136.464844 19.832031 C 137.484375 18.746094 137.925781 17.394531 138.136719 16.675781 C 138.34375 15.957031 140.160156 6.367188 140.160156 6.367188 L 138.273438 6.367188 C 138.242188 8.492188 136.851563 15.308594 136.636719 16.265625 C 136.417969 17.222656 135.585938 20.039063 132.863281 19.820313 C 130.140625 19.605469 130.761719 16.730469 130.945313 14.78125 C 131.132813 12.832031 132.523438 6.367188 132.523438 6.367188 L 130.019531 6.367188 C 130.019531 6.367188 129.253906 11.734375 129.160156 12.222656 C 129.066406 12.710938 128.257813 17.464844 128.558594 18.554688 "/>
<path style=" stroke:none;fill-rule:evenodd;fill:rgb(9.799194%,8.999634%,10.598755%);fill-opacity:1;" d="M 147.410156 11.921875 L 147.6875 11.921875 L 148.316406 10.042969 C 148.316406 10.042969 147.109375 8.765625 145.183594 8.90625 C 142.992188 9.066406 141.03125 9.925781 140.546875 13.265625 C 140.546875 13.265625 140.339844 15.421875 141.890625 16.417969 C 143.445313 17.417969 144.90625 17.996094 145.183594 19.320313 C 145.464844 20.640625 144.09375 21.9375 143.632813 22.171875 C 143.167969 22.402344 140.777344 23.457031 139.503906 20.710938 L 139.199219 20.710938 C 139.199219 20.710938 138.726563 22.585938 138.5625 22.660156 C 138.5625 22.660156 140.429688 24.328125 142.726563 23.921875 C 145.023438 23.515625 147.121094 21.949219 147.410156 19.273438 C 147.699219 16.59375 145.265625 15.46875 144.90625 15.316406 C 144.546875 15.167969 141.429688 13.789063 142.960938 11.292969 C 142.960938 11.292969 143.652344 10.289063 145.230469 10.25 C 146.679688 10.214844 147.410156 11.921875 147.410156 11.921875 "/>
<g clip-path="url(#clip3)" clip-rule="nonzero">
<path style=" stroke:none;fill-rule:evenodd;fill:rgb(9.799194%,8.999634%,10.598755%);fill-opacity:1;" d="M 175.441406 1.855469 C 175.441406 1.855469 174.542969 3.742188 174.417969 4.730469 L 173.988281 4.730469 C 173.988281 4.730469 172.59375 2.011719 169.535156 1.730469 C 164 1.734375 161.679688 8.289063 161.09375 10.421875 C 160.503906 12.554688 160.039063 14.84375 160.011719 18.398438 C 159.980469 21.953125 161.960938 24.890625 164.402344 25.542969 C 167.957031 25.972656 170.027344 24.769531 171.820313 22.820313 L 172.222656 22.820313 L 171.480469 25.292969 C 171.480469 25.292969 166.289063 28.972656 161.679688 26.53125 C 157.070313 24.089844 157.042969 16.757813 157.042969 15.957031 C 157.042969 15.152344 156.960938 7.867188 163.011719 2.445313 C 169.503906 -2.6875 175.441406 1.855469 175.441406 1.855469 "/>
</g>
<path style=" stroke:none;fill-rule:evenodd;fill:rgb(9.799194%,8.999634%,10.598755%);fill-opacity:1;" d="M 195.703125 12.070313 C 194.777344 12.789063 193.8125 13.195313 191.925781 13.140625 C 191.925781 13.140625 192.210938 11.085938 192.320313 10.195313 C 192.410156 9.425781 192.761719 7.734375 192.761719 7.734375 L 194.640625 7.734375 C 194.640625 7.734375 195.832031 7.746094 196.367188 8.652344 C 196.898438 9.554688 196.554688 11.414063 195.703125 12.070313 M 198.871094 8.117188 C 198.128906 6.46875 195.695313 6.414063 195.695313 6.414063 L 190.59375 6.414063 C 190.59375 6.414063 189.953125 11.550781 189.828125 12.476563 C 189.699219 13.40625 188.191406 21.105469 188.191406 21.105469 L 190.71875 21.105469 C 190.753906 20.394531 191.703125 14.496094 191.703125 14.496094 C 193.445313 14.738281 195.046875 14.355469 195.046875 14.355469 C 196.597656 13.984375 197.804688 12.664063 198.175781 12.105469 C 198.546875 11.550781 199.613281 9.765625 198.871094 8.117188 "/>
<path style=" stroke:none;fill-rule:evenodd;fill:rgb(9.799194%,8.999634%,10.598755%);fill-opacity:1;" d="M 211.925781 12.734375 L 212.703125 7.710938 L 214.28125 7.710938 C 214.28125 7.710938 215.613281 7.734375 216.007813 8.964844 C 216.402344 10.191406 215.695313 11.457031 214.859375 12.09375 C 214.199219 12.601563 213.722656 12.71875 211.925781 12.734375 M 224.054688 6.308594 C 221.886719 6.460938 220.089844 8.011719 219.882813 10.644531 C 219.914063 13.808594 221.433594 14.21875 223.035156 15.097656 C 224.636719 15.980469 224.914063 17.128906 224.390625 18.402344 C 223.867188 19.675781 222.710938 20.074219 221.945313 20.1875 C 221.179688 20.304688 220.066406 20.25 218.542969 19.363281 C 216.71875 18.304688 214.757813 13.960938 214.757813 13.960938 C 217.050781 13.382813 218.789063 11.574219 218.511719 9.023438 C 218.234375 6.46875 215.289063 6.519531 215.289063 6.519531 L 210.511719 6.414063 C 210.511719 6.414063 209.863281 11.6875 209.597656 13.40625 C 209.328125 15.121094 208.066406 21.210938 208.066406 21.210938 L 210.699219 21.210938 L 211.601563 14.125 L 212.332031 14.125 C 212.597656 14.574219 213.585938 16.417969 213.585938 16.417969 C 215.070313 19.632813 217.238281 20.769531 217.238281 20.769531 C 220.601563 22.613281 223.730469 21.511719 225.121094 20.429688 C 227.046875 18.925781 226.964844 17.21875 226.988281 16.316406 C 227.011719 15.410156 226.523438 13.796875 224.265625 12.742188 C 222.003906 11.6875 221.957031 10.308594 221.957031 10.007813 C 221.957031 9.707031 222.339844 7.746094 224.4375 7.699219 C 226.535156 7.652344 226.988281 9.449219 226.988281 9.449219 L 227.289063 9.449219 L 227.90625 7.410156 C 227.082031 6.644531 226.222656 6.15625 224.054688 6.308594 "/>
<path style=" stroke:none;fill-rule:evenodd;fill:rgb(100%,100%,100%);fill-opacity:1;" d="M 241.207031 13.78125 L 240.234375 13.78125 L 240.867188 9.71875 L 241.285156 7.128906 C 241.285156 7.128906 244.113281 6.972656 244.703125 7.574219 C 244.703125 7.574219 241.9375 9.492188 241.207031 13.78125 M 246.1875 6.617188 C 245.566406 6.214844 243.589844 6.125 243.589844 6.125 L 239.691406 6.125 L 237.144531 21.769531 L 238.949219 21.769531 L 240.109375 14.75 C 241.980469 14.6875 244.867188 14.84375 246.648438 12.507813 C 248.300781 10.34375 247.378906 8.101563 247.378906 8.101563 L 245.738281 9.386719 C 246.078125 12.910156 243.171875 13.390625 243.171875 13.390625 C 243.773438 9.910156 245.9375 7.097656 248.8125 7.019531 C 251.289063 6.953125 252.308594 8.90625 252.308594 8.90625 L 253.050781 7.113281 C 249.523438 4.699219 246.1875 6.617188 246.1875 6.617188 "/>
<path style=" stroke:none;fill-rule:evenodd;fill:rgb(100%,100%,100%);fill-opacity:1;" d="M 241.03125 15.492188 L 242.980469 15.351563 C 242.980469 15.351563 242.585938 18.949219 244.902344 20.410156 C 247.222656 21.867188 250.332031 19.757813 250.863281 19.273438 L 250.585938 20.917969 C 250.585938 20.917969 248.964844 22.332031 245.414063 21.894531 C 241.867188 21.453125 240.777344 18.066406 241.03125 15.492188 "/>
<path style=" stroke:none;fill-rule:evenodd;fill:rgb(100%,100%,100%);fill-opacity:1;" d="M 244.765625 14.84375 L 245.929688 14.195313 L 246.144531 16.664063 L 248.152344 11.574219 L 249.078125 11.574219 L 249.703125 16.628906 L 251.816406 11.574219 L 253.050781 11.574219 L 249.726563 19.015625 L 248.742188 19.015625 L 248.058594 14.285156 L 246.132813 19.015625 L 245.160156 19.015625 "/>
</g>
</svg>
