<?xml version="1.0" encoding="UTF-8"?>
<svg xmlns="http://www.w3.org/2000/svg" xmlns:xlink="http://www.w3.org/1999/xlink" width="364pt" height="40pt" viewBox="0 0 364 40" version="1.1">
<defs>
<clipPath id="clip1">
  <path d="M 0.0585938 0.0390625 L 35 0.0390625 L 35 30 L 0.0585938 30 Z M 0.0585938 0.0390625 "/>
</clipPath>
<clipPath id="clip2">
  <path d="M 199 0.0390625 L 225 0.0390625 L 225 31 L 199 31 Z M 199 0.0390625 "/>
</clipPath>
</defs>
<g id="surface1">
<g clip-path="url(#clip1)" clip-rule="nonzero">
<path style=" stroke:none;fill-rule:nonzero;fill:rgb(14.414978%,27.827454%,49.803162%);fill-opacity:1;" d="M 24.117188 29.574219 L 24.117188 28.71875 C 26.28125 28.46875 27.089844 27.5625 26.9375 24.640625 L 26.082031 5.761719 L 17.023438 29.375 L 15.863281 29.375 L 6.597656 5.761719 L 5.789063 23.484375 C 5.640625 27.210938 6.441406 28.214844 9.265625 28.71875 L 9.265625 29.574219 L 0 29.574219 L 0 28.71875 C 2.621094 28.417969 3.675781 27.007813 3.878906 23.230469 L 4.78125 5.605469 C 4.9375 2.285156 2.722656 1.882813 1.207031 1.582031 L 1.207031 0.722656 L 8.8125 0.722656 L 17.523438 23.078125 L 26.027344 0.878906 L 33.234375 0.878906 L 33.234375 1.785156 C 30.964844 1.980469 29.859375 3.09375 29.957031 5.707031 L 30.8125 23.785156 C 30.964844 27.257813 31.96875 28.46875 34.539063 28.71875 L 34.539063 29.574219 L 24.117188 29.574219 "/>
</g>
<path style=" stroke:none;fill-rule:nonzero;fill:rgb(14.414978%,27.827454%,49.803162%);fill-opacity:1;" d="M 44.203125 30.078125 C 38.011719 30.078125 35.648438 25.746094 35.648438 21.519531 C 35.648438 16.179688 39.671875 11.34375 45.058594 11.34375 C 47.273438 11.34375 49.191406 11.902344 50.449219 12.914063 C 50.394531 13.964844 49.84375 15.378906 49.289063 16.078125 L 48.941406 16.132813 C 47.476563 14.21875 45.464844 13.519531 43.699219 13.519531 C 42.492188 13.519531 41.285156 13.8125 40.429688 14.667969 C 39.519531 15.574219 39.023438 17.089844 39.023438 19.152344 C 39.023438 23.585938 40.886719 27.8125 45.867188 27.8125 C 47.628906 27.8125 49.492188 27.3125 51.152344 26.304688 L 51.558594 27.160156 C 49.84375 29.019531 46.773438 30.078125 44.203125 30.078125 "/>
<path style=" stroke:none;fill-rule:nonzero;fill:rgb(14.414978%,27.827454%,49.803162%);fill-opacity:1;" d="M 72.292969 29.574219 C 68.316406 25.09375 64.640625 20.460938 61.21875 16.234375 L 59.855469 17.742188 L 59.855469 19.351563 C 59.855469 28.011719 59.855469 28.265625 63.132813 28.71875 L 63.132813 29.574219 L 52.808594 29.574219 L 52.808594 28.71875 C 55.78125 28.46875 56.082031 27.964844 56.082031 19.90625 L 56.082031 9.9375 C 56.082031 2.484375 55.933594 1.835938 52.808594 1.582031 L 52.808594 0.722656 L 63.132813 0.722656 L 63.132813 1.582031 C 60.210938 1.980469 59.855469 2.4375 59.855469 9.839844 L 59.855469 15.273438 L 67.460938 6.867188 C 69.324219 4.855469 69.476563 3.796875 69.476563 3.191406 C 69.476563 2.285156 68.96875 1.835938 67.710938 1.582031 L 67.710938 0.722656 L 77.378906 0.722656 L 77.378906 1.582031 C 74.558594 1.683594 72.949219 3.347656 69.925781 6.667969 L 63.734375 13.519531 C 65.648438 15.984375 68.921875 19.90625 70.878906 22.226563 C 75.96875 28.113281 77.585938 28.566406 79.191406 28.71875 L 79.191406 29.574219 L 72.292969 29.574219 "/>
<path style=" stroke:none;fill-rule:nonzero;fill:rgb(14.414978%,27.827454%,49.803162%);fill-opacity:1;" d="M 79.09375 29.574219 L 79.09375 28.71875 C 82.261719 28.570313 82.3125 28.570313 82.3125 22.171875 L 82.3125 17.742188 C 82.3125 12.710938 81.957031 12.558594 79.039063 12.457031 L 79.039063 11.597656 L 85.785156 11.597656 L 85.785156 22.226563 C 85.785156 28.570313 85.882813 28.515625 88.703125 28.71875 L 88.703125 29.574219 Z M 83.871094 6.515625 C 82.558594 6.515625 81.609375 5.507813 81.609375 4.199219 C 81.609375 2.890625 82.558594 1.882813 83.871094 1.882813 C 85.183594 1.882813 86.1875 2.890625 86.1875 4.199219 C 86.1875 5.507813 85.183594 6.515625 83.871094 6.515625 "/>
<path style=" stroke:none;fill-rule:nonzero;fill:rgb(14.414978%,27.827454%,49.803162%);fill-opacity:1;" d="M 103.003906 29.574219 L 103.003906 28.71875 C 105.570313 28.566406 105.769531 28.515625 105.769531 22.523438 L 105.769531 18.902344 C 105.769531 14.566406 104.011719 13.613281 101.796875 13.613281 C 99.078125 13.613281 96.804688 15.675781 96.804688 17.34375 L 96.804688 22.226563 C 96.804688 28.566406 96.910156 28.515625 99.730469 28.71875 L 99.730469 29.574219 L 90.113281 29.574219 L 90.113281 28.71875 C 93.28125 28.566406 93.339844 28.566406 93.339844 22.171875 L 93.339844 17.742188 C 93.339844 12.707031 92.980469 12.558594 90.0625 12.457031 L 90.0625 11.597656 L 96.804688 11.597656 L 96.804688 14.824219 C 98.671875 12.457031 101.085938 11.34375 103.410156 11.34375 C 106.273438 11.34375 109.25 13.058594 109.25 18.5 L 109.25 22.523438 C 109.25 28.515625 109.25 28.566406 112.417969 28.71875 L 112.417969 29.574219 L 103.003906 29.574219 "/>
<path style=" stroke:none;fill-rule:nonzero;fill:rgb(14.414978%,27.827454%,49.803162%);fill-opacity:1;" d="M 120.367188 30.027344 C 118 30.027344 115.132813 29.425781 114.425781 28.265625 C 114.171875 27.863281 113.972656 25.445313 113.972656 24.136719 L 115.027344 24.136719 C 115.734375 27.359375 117.902344 28.722656 120.46875 28.722656 C 123.082031 28.722656 124.648438 27.710938 124.648438 26.054688 C 124.648438 21.113281 114.324219 22.328125 114.324219 16.28125 C 114.324219 13.515625 116.488281 11.199219 120.21875 11.199219 C 122.734375 11.199219 125.300781 11.902344 125.503906 12.105469 C 125.707031 12.304688 126.007813 13.96875 126.007813 16.585938 L 125.195313 16.585938 C 124.894531 15.523438 123.390625 12.40625 120.015625 12.40625 C 118.351563 12.40625 116.992188 13.15625 116.992188 14.671875 C 116.992188 18.953125 127.261719 17.941406 127.261719 24.589844 C 127.261719 27.5625 124.648438 30.027344 120.367188 30.027344 "/>
<path style=" stroke:none;fill-rule:nonzero;fill:rgb(14.414978%,27.827454%,49.803162%);fill-opacity:1;" d="M 146.296875 27.15625 L 145.894531 26.300781 C 144.234375 27.3125 142.367188 27.8125 140.605469 27.8125 C 135.621094 27.8125 133.558594 23.332031 133.710938 19.253906 L 146.296875 19.253906 C 146.5 15.121094 144.332031 11.199219 139.144531 11.199219 C 133.914063 11.199219 130.386719 15.378906 130.386719 21.167969 C 130.386719 25.695313 132.703125 30.078125 138.949219 30.078125 C 141.511719 30.078125 144.585938 29.019531 146.296875 27.15625 M 143.023438 17.898438 L 133.761719 17.898438 C 134.0625 14.570313 135.570313 12.707031 138.441406 12.707031 C 141.261719 12.707031 142.96875 14.570313 143.023438 17.898438 "/>
<path style=" stroke:none;fill-rule:nonzero;fill:rgb(14.414978%,27.827454%,49.803162%);fill-opacity:1;" d="M 163.308594 15.984375 L 159.730469 26.148438 C 157.363281 32.847656 156.058594 37.277344 149.351563 40 C 148.855469 39.542969 147.898438 38.03125 147.640625 37.179688 C 152.730469 36.019531 155.25 33.804688 156.859375 29.675781 L 152.179688 19.253906 C 149.40625 13.109375 149.207031 12.808594 147.140625 12.707031 L 147.140625 11.855469 L 155.546875 11.855469 L 155.546875 12.707031 C 154.242188 12.859375 153.835938 13.261719 153.835938 13.96875 C 153.835938 14.722656 154.191406 15.578125 155.097656 17.742188 L 158.472656 25.648438 L 161.941406 15.429688 C 162.546875 13.664063 161.691406 12.808594 160.132813 12.707031 L 160.132813 11.855469 L 166.628906 11.855469 L 166.628906 12.707031 C 165.367188 12.707031 164.109375 13.664063 163.308594 15.984375 "/>
<path style=" stroke:none;fill-rule:nonzero;fill:rgb(14.414978%,27.827454%,49.803162%);fill-opacity:1;" d="M 199.058594 29.574219 L 199.058594 28.71875 C 197.039063 28.515625 194.015625 26.851563 190.792969 24.488281 C 191.953125 22.578125 192.203125 19.808594 192.507813 17.742188 C 192.757813 15.984375 194.066406 16.03125 194.921875 15.929688 L 194.921875 15.128906 L 186.765625 15.128906 L 186.765625 15.929688 C 188.683594 16.179688 190.546875 16.433594 190.546875 19.40625 C 190.546875 20.960938 190.289063 22.523438 189.582031 23.585938 C 182.4375 17.996094 175.84375 10.238281 175.84375 6.363281 C 175.84375 4.449219 177 3.542969 178.859375 3.542969 C 181.179688 3.542969 183.394531 5.105469 184.449219 8.128906 L 185.257813 8.128906 L 185.152344 2.6875 L 184.347656 2.6875 C 184.296875 3.042969 183.949219 3.292969 183.746094 3.292969 C 182.742188 3.292969 181.332031 2.183594 178.859375 2.183594 C 176.148438 2.183594 173.324219 3.898438 173.324219 7.617188 C 173.324219 9.035156 173.777344 10.339844 174.535156 11.851563 C 170.808594 13.011719 168.84375 16.234375 168.84375 19.90625 C 168.84375 26.605469 173.929688 30.230469 179.667969 30.230469 C 183.246094 30.230469 186.0625 29.121094 188.683594 26.910156 C 190.289063 28.066406 191.898438 29.171875 192.859375 29.574219 Z M 187.371094 26 C 185.859375 27.160156 183.292969 27.511719 181.234375 27.511719 C 175.941406 27.511719 171.761719 23.785156 171.761719 18.796875 C 171.761719 15.675781 173.121094 13.71875 175.183594 13.160156 C 177.707031 17.640625 182.4375 22.375 187.371094 26 "/>
<g clip-path="url(#clip2)" clip-rule="nonzero">
<path style=" stroke:none;fill-rule:nonzero;fill:rgb(14.414978%,27.827454%,49.803162%);fill-opacity:1;" d="M 213.34375 30.28125 C 204.996094 30.28125 199.703125 24.742188 199.703125 15.929688 C 199.703125 6.71875 205.449219 0.0195313 214.050781 0.0195313 C 218.332031 0.0195313 219.945313 1.226563 221.65625 1.226563 C 222.414063 1.226563 222.914063 0.925781 223.21875 0.320313 L 224.027344 0.320313 L 224.328125 8.929688 L 223.46875 8.929688 C 222.058594 3.949219 219.1875 1.429688 214.207031 1.429688 C 207.757813 1.429688 203.835938 5.960938 203.835938 14.066406 C 203.835938 22.472656 207.859375 28.113281 214.605469 28.113281 C 218.386719 28.113281 222.058594 26.449219 223.773438 24.136719 L 224.578125 25.042969 C 223.011719 27.613281 218.785156 30.28125 213.34375 30.28125 "/>
</g>
<path style=" stroke:none;fill-rule:nonzero;fill:rgb(14.414978%,27.827454%,49.803162%);fill-opacity:1;" d="M 245.863281 20.613281 C 245.863281 17.136719 244.453125 14.21875 241.886719 12.609375 C 240.378906 11.652344 238.46875 11.199219 236.351563 11.199219 C 230.710938 11.199219 226.730469 15.324219 226.730469 20.613281 C 226.730469 24.136719 228.144531 27.054688 230.710938 28.667969 C 232.222656 29.628906 234.183594 30.03125 236.296875 30.03125 C 241.886719 30.03125 245.863281 26 245.863281 20.613281 M 242.292969 21.769531 C 242.292969 25.949219 240.429688 28.519531 236.652344 28.519531 C 233.378906 28.519531 230.3125 25.496094 230.3125 19.40625 C 230.3125 15.070313 232.371094 12.707031 235.847656 12.707031 C 239.070313 12.707031 242.292969 15.828125 242.292969 21.769531 "/>
<path style=" stroke:none;fill-rule:nonzero;fill:rgb(14.414978%,27.827454%,49.803162%);fill-opacity:1;" d="M 272.496094 29.574219 L 272.496094 28.71875 C 275.117188 28.515625 275.164063 28.265625 275.164063 22.828125 L 275.164063 18.699219 C 275.164063 14.972656 273.707031 13.613281 271.4375 13.613281 C 268.769531 13.613281 266.457031 15.625 266.457031 17.441406 L 266.457031 22.523438 C 266.457031 28.214844 266.402344 28.46875 269.371094 28.71875 L 269.371094 29.574219 L 260.414063 29.574219 L 260.414063 28.71875 C 262.929688 28.566406 263.082031 28.265625 263.082031 22.328125 L 263.082031 18.699219 C 263.082031 15.125 261.921875 13.613281 259.203125 13.613281 C 256.6875 13.613281 254.320313 15.625 254.320313 17.488281 L 254.320313 22.726563 C 254.320313 28.46875 254.574219 28.46875 257.238281 28.71875 L 257.238281 29.574219 L 247.726563 29.574219 L 247.726563 28.71875 C 250.75 28.667969 250.847656 28.667969 250.847656 22.878906 L 250.847656 17.742188 C 250.847656 12.707031 250.496094 12.558594 247.570313 12.457031 L 247.570313 11.597656 L 254.320313 11.597656 L 254.320313 14.824219 C 255.726563 12.910156 258.148438 11.34375 260.613281 11.34375 C 263.636719 11.34375 265.394531 12.808594 266.101563 15.273438 C 267.761719 12.960938 270.082031 11.34375 272.949219 11.34375 C 276.125 11.34375 278.84375 13.207031 278.84375 18.195313 L 278.84375 22.878906 C 278.84375 28.113281 278.691406 28.566406 281.960938 28.71875 L 281.960938 29.574219 L 272.496094 29.574219 "/>
<path style=" stroke:none;fill-rule:nonzero;fill:rgb(14.414978%,27.827454%,49.803162%);fill-opacity:1;" d="M 303.101563 20.511719 C 303.101563 15.277344 299.722656 11.34375 295.050781 11.34375 C 292.429688 11.34375 290.3125 12.558594 288.851563 14.265625 L 288.851563 11.597656 L 282.257813 11.597656 L 282.257813 12.457031 C 285.027344 12.558594 285.378906 12.707031 285.378906 18.601563 L 285.378906 30.878906 C 285.378906 37.277344 285.53125 37.78125 282.40625 37.933594 L 282.40625 38.789063 L 292.019531 38.789063 L 292.019531 37.933594 C 288.597656 37.832031 288.851563 37.277344 288.851563 30.585938 L 288.851563 28.113281 C 290.214844 29.472656 292.328125 30.03125 294.238281 30.03125 C 299.675781 30.03125 303.101563 25.949219 303.101563 20.511719 M 299.476563 20.964844 C 299.476563 25.648438 297.511719 28.667969 293.835938 28.667969 C 291.472656 28.667969 288.851563 27.3125 288.851563 25.546875 L 288.851563 16.636719 C 288.851563 15.128906 291.015625 13.613281 293.4375 13.613281 C 297.15625 13.613281 299.476563 16.386719 299.476563 20.964844 "/>
<path style=" stroke:none;fill-rule:nonzero;fill:rgb(14.414978%,27.827454%,49.803162%);fill-opacity:1;" d="M 323.183594 29.578125 L 323.183594 28.71875 L 322.128906 28.71875 C 319.613281 28.71875 319.3125 27.863281 319.3125 24.285156 L 319.3125 18.246094 C 319.3125 17.085938 319.210938 16.03125 318.960938 15.175781 C 318.105469 12.355469 315.789063 11.34375 312.617188 11.34375 C 310.652344 11.34375 307.785156 12.054688 306.222656 13.414063 C 306.324219 14.265625 307.078125 15.929688 307.582031 16.4375 L 308.035156 16.335938 C 308.839844 14.371094 310.199219 12.960938 312.363281 12.960938 C 314.730469 12.960938 315.738281 14.621094 315.738281 16.582031 L 315.738281 18.652344 C 315.738281 20.011719 309.695313 20.261719 307.230469 22.324219 C 306.375 23.078125 305.765625 24.035156 305.765625 25.347656 C 305.765625 28.164063 307.734375 30.027344 310.699219 30.027344 C 312.5625 30.027344 314.175781 29.425781 315.835938 27.558594 C 316.089844 28.867188 317.199219 29.578125 318.960938 29.578125 Z M 315.738281 25.300781 C 315.738281 26.804688 313.726563 28.0625 312.113281 28.0625 C 310.597656 28.0625 309.34375 27.105469 309.34375 25.042969 C 309.34375 21.367188 313.171875 21.769531 315.738281 20.359375 L 315.738281 25.300781 "/>
<path style=" stroke:none;fill-rule:nonzero;fill:rgb(14.414978%,27.827454%,49.803162%);fill-opacity:1;" d="M 335.773438 29.574219 L 335.773438 28.71875 C 338.339844 28.566406 338.539063 28.515625 338.539063 22.523438 L 338.539063 18.902344 C 338.539063 14.566406 336.773438 13.613281 334.5625 13.613281 C 331.84375 13.613281 329.578125 15.675781 329.578125 17.34375 L 329.578125 22.226563 C 329.578125 28.566406 329.675781 28.515625 332.496094 28.71875 L 332.496094 29.574219 L 322.878906 29.574219 L 322.878906 28.71875 C 326.050781 28.566406 326.105469 28.566406 326.105469 22.171875 L 326.105469 17.742188 C 326.105469 12.707031 325.753906 12.558594 322.832031 12.457031 L 322.832031 11.597656 L 329.578125 11.597656 L 329.578125 14.824219 C 331.441406 12.457031 333.859375 11.34375 336.167969 11.34375 C 339.042969 11.34375 342.007813 13.058594 342.007813 18.5 L 342.007813 22.523438 C 342.007813 28.515625 342.007813 28.566406 345.183594 28.71875 L 345.183594 29.574219 L 335.773438 29.574219 "/>
<path style=" stroke:none;fill-rule:nonzero;fill:rgb(14.414978%,27.827454%,49.803162%);fill-opacity:1;" d="M 360.078125 15.984375 L 356.503906 26.148438 C 354.140625 32.847656 352.832031 37.277344 346.128906 40 C 345.628906 39.542969 344.667969 38.03125 344.417969 37.179688 C 349.503906 36.019531 352.023438 33.804688 353.636719 29.675781 L 348.953125 19.253906 C 346.183594 13.109375 345.980469 12.808594 343.914063 12.707031 L 343.914063 11.855469 L 352.324219 11.855469 L 352.324219 12.707031 C 351.015625 12.859375 350.617188 13.261719 350.617188 13.96875 C 350.617188 14.722656 350.96875 15.578125 351.871094 17.742188 L 355.246094 25.648438 L 358.722656 15.429688 C 359.324219 13.664063 358.46875 12.808594 356.910156 12.707031 L 356.910156 11.855469 L 363.40625 11.855469 L 363.40625 12.707031 C 362.140625 12.707031 360.882813 13.664063 360.078125 15.984375 "/>
</g>
</svg>
