<?xml version="1.0" encoding="UTF-8"?>
<!DOCTYPE svg PUBLIC "-//W3C//DTD SVG 1.1//EN" "http://www.w3.org/Graphics/SVG/1.1/DTD/svg11.dtd">
<!-- Creator: CorelDRAW -->
<svg xmlns="http://www.w3.org/2000/svg" xml:space="preserve" width="2704px" height="501px" shape-rendering="geometricPrecision" text-rendering="geometricPrecision" image-rendering="optimizeQuality" fill-rule="evenodd" clip-rule="evenodd"
viewBox="0 0 2625.97 486.839"
 xmlns:xlink="http://www.w3.org/1999/xlink">
 <g id="Ebene_x0020_1">
  <metadata id="CorelCorpID_0Corel-Layer"/>
  <polygon fill="#D42E12" fill-rule="nonzero" points="0,486.839 2625.97,486.839 2625.97,0 0,0 "/>
  <path fill="white" fill-rule="nonzero" d="M1287.26 265.802c0,51.268 39.2476,88.6518 88.6013,88.6518 49.4042,0 88.6656,-39.5309 88.6656,-88.6518 0,-52.8692 -37.838,-89.215 -88.6656,-89.215 -49.4558,0 -88.6013,39.7087 -88.6013,89.215zm32.8784 0c0,-31.7647 22.622,-61.0358 55.7229,-61.0358 33.9944,0 55.7436,24.2129 55.7436,61.0358 0,32.4964 -22.684,60.3442 -55.7436,60.3442 -33.086,0 -55.7229,-25.9231 -55.7229,-60.3442z"/>
  <path fill="white" fill-rule="nonzero" d="M1093.38 265.339c0,51.7303 36.8344,88.2297 88.6518,88.2297 28.7733,0 52.3703,-11.4641 68.1873,-33.2638l0.899238 -1.31101 -24.37 -20.2856 -0.807479 1.63102c-9.34565,16.9479 -23.995,25.7155 -43.909,25.7155 -33.843,0 -55.7333,-26.4725 -55.7333,-60.7158 0,-34.1263 24.2886,-60.4967 55.7333,-60.4967 18.8232,0 35.6289,10.4881 43.691,24.627l0.847624 1.3718 24.9837 -19.7982 -1.06555 -1.34656c-16.8584,-20.7226 -41.802,-32.5859 -68.4568,-32.5859 -47.9773,0 -88.6518,36.7827 -88.6518,88.2286z"/>
  <polygon fill="white" fill-rule="nonzero" points="2338.13,278.936 2338.13,350.217 2370.05,350.217 2370.05,278.936 2432.03,180.808 2396.93,180.808 2354.1,248.792 2312.63,180.823 2276.25,180.808 "/>
  <path fill="white" fill-rule="nonzero" d="M1764.3 180.808l0 169.399 31.9035 0 0 -63.0419c2.16895,0.299364 5.21535,0.528761 7.87177,0.528761 40.9176,0 70.1635,-18.1178 70.1635,-53.3464 0,-33.7765 -24.4308,-53.5391 -70.1784,-53.5391l-39.7603 0zm31.9035 25.5893l7.8821 0c26.0148,-0.0665253 37.3253,9.8985 37.3253,27.8477 0,17.6797 -11.9803,27.2949 -37.3356,27.2949 -3.67265,-0.115846 -5.77967,-0.258072 -7.87177,-0.589552l0 -54.553z"/>
  <polygon fill="white" fill-rule="nonzero" points="1550.57,258.778 1603.19,354.494 1655.29,258.716 1676.21,350.206 1709.77,350.217 1665.28,177.868 1603.77,292.264 1541.08,177.868 1498.92,350.231 1530.19,350.231 "/>
  <polygon fill="white" fill-rule="nonzero" points="683.686,281.389 571.513,177.868 571.513,350.231 602.571,350.231 602.571,250.834 714.627,354.249 714.627,180.797 683.686,180.808 "/>
  <polygon fill="white" fill-rule="nonzero" points="465.938,350.206 498.14,350.206 498.14,180.823 465.938,180.823 "/>
  <path fill="white" fill-rule="nonzero" d="M424.676 350.206l-82.465 -172.365 -82.5659 172.365 32.4162 0 16.2161 -36.0154 65.3129 0 15.6633 36.0154 35.4224 0zm-104.06 -63.3217l21.5955 -48.7642 20.0677 48.7642 -41.6632 0z"/>
  <path fill="white" fill-rule="nonzero" d="M202.997 259.921c13.2374,-5.91846 23.0235,-18.9104 23.0235,-35.0726 0,-29.3262 -23.2517,-44.0156 -64.0168,-44.0156l-40.6079 0 0 169.384 47.9922 -0.0252337c43.3814,0 66.258,-17.487 66.258,-48.6988 0,-20.6825 -12.9919,-34.9705 -32.649,-41.5714zm-35.614 18.4768c22.3158,-0.0401446 35.3456,5.45507 35.3456,23.4697 0,15.7149 -11.9413,22.6083 -35.4075,22.7505l-14.0598 0 0 -46.2202 14.1217 0zm-14.1217 -25.8577l0.0367036 -46.1295 5.64891 0.0114699c23.5098,0 35.1265,6.35431 35.1265,23.3171 0,17.2794 -11.8495,22.7861 -33.9956,22.7861l-6.81655 0.0149108z"/>
  <path fill="white" fill-rule="nonzero" d="M956.052 350.409l37.3838 0c0,0 -28.6414,-32.4047 -33.0596,-37.9251 4.08328,-4.82652 28.2996,-42.4569 28.2996,-42.4569l-30.043 -0.0516144 -14.9831 22.6587 -26.9095 -30.2862c22.2986,-11.7084 36.4226,-28.3111 36.4226,-46.1181 0,-23.8413 -20.6974,-39.3749 -46.6973,-39.3749 -29.3617,0 -48.927,17.3057 -48.927,41.6861 0,17.3344 10.7977,31.2508 18.2807,39.8039 -17.8586,9.74251 -33.6606,24.3035 -33.6606,49.0945 0,26.4725 21.5553,47.0276 52.5997,47.0276 18.6913,0 34.4979,-6.58715 47.3373,-20.1835l13.9565 16.1255zm-69.2425 -131.315c0,-11.8748 8.42118,-19.1432 19.5435,-19.1432 11.1189,0 18.525,7.11476 18.525,17.5787 0,11.697 -11.6717,20.8236 -23.3802,26.8441 -5.99416,-5.8267 -14.6883,-15.3295 -14.6883,-25.2796zm37.9515 96.4467c-4.69806,6.45639 -15.1873,13.0034 -26.4725,13.0034 -15.7149,0 -25.5881,-9.79298 -25.5881,-23.7759 0,-11.9149 8.89718,-22.7895 18.0765,-27.6045 0.243161,-0.115846 0.552848,-0.254631 0.770776,-0.371624l33.2133 38.7487z"/>
  <polygon fill="white" fill-rule="nonzero" points="2207.35,281.349 2095.21,177.831 2095.21,350.206 2126.24,350.217 2126.24,250.793 2238.3,354.209 2238.3,180.808 2207.35,180.808 "/>
  <path fill="white" fill-rule="nonzero" d="M2054.05 350.206l-82.4638 -172.375 -82.567 172.375 32.4162 0 16.2276 -36.0154 65.3014 0 15.6747 36.0154 35.4109 0zm-104.06 -63.3366l21.5966 -48.7596 20.0528 48.7596 -41.6494 0z"/>
 </g>
</svg>
