<?xml version="1.0" encoding="UTF-8"?>
<svg xmlns="http://www.w3.org/2000/svg" xmlns:xlink="http://www.w3.org/1999/xlink" width="235.9pt" height="99.1pt" viewBox="0 0 235.9 99.1" version="1.1">
<defs>
<clipPath id="clip1">
  <path d="M 0 0 L 235.898438 0 L 235.898438 99 L 0 99 Z M 0 0 "/>
</clipPath>
<clipPath id="clip2">
  <path d="M 0 0 L 235.898438 0 L 235.898438 99.101563 L 0 99.101563 Z M 0 0 "/>
</clipPath>
</defs>
<g id="surface1">
<g clip-path="url(#clip1)" clip-rule="nonzero">
<path style=" stroke:none;fill-rule:evenodd;fill:rgb(10.594177%,9.812927%,9.423828%);fill-opacity:1;" d="M 0.167969 98.917969 L 235.898438 98.917969 L 235.898438 0.0625 L 0.167969 0.0625 Z M 0.167969 98.917969 "/>
</g>
<g clip-path="url(#clip2)" clip-rule="nonzero">
<path style="fill:none;stroke-width:2;stroke-linecap:butt;stroke-linejoin:miter;stroke:rgb(0%,0%,0%);stroke-opacity:1;stroke-miterlimit:4;" d="M 1.679688 1.820313 L 2358.984375 1.820313 L 2358.984375 990.375 L 1.679688 990.375 Z M 1.679688 1.820313 " transform="matrix(0.1,0,0,-0.1,0,99.1)"/>
</g>
<path style=" stroke:none;fill-rule:evenodd;fill:rgb(100%,100%,100%);fill-opacity:1;" d="M 203.742188 82.632813 C 203.742188 83.882813 203.945313 84.792969 204.351563 85.363281 C 204.761719 85.9375 205.261719 86.222656 205.851563 86.222656 C 206.441406 86.222656 206.945313 85.945313 207.359375 85.382813 C 207.773438 84.820313 207.980469 83.925781 207.980469 82.703125 C 207.980469 81.507813 207.769531 80.621094 207.34375 80.039063 C 206.917969 79.457031 206.398438 79.164063 205.789063 79.164063 C 205.246094 79.164063 204.769531 79.457031 204.355469 80.039063 C 203.949219 80.621094 203.742188 81.484375 203.742188 82.632813 Z M 202.648438 88.347656 L 203.925781 88.582031 C 203.988281 89.089844 204.164063 89.46875 204.460938 89.714844 C 204.757813 89.964844 205.164063 90.085938 205.691406 90.085938 C 206.265625 90.085938 206.722656 89.949219 207.0625 89.671875 C 207.402344 89.390625 207.636719 88.980469 207.757813 88.429688 C 207.835938 88.09375 207.875 87.390625 207.875 86.316406 C 207.589844 86.730469 207.273438 87.039063 206.917969 87.246094 C 206.5625 87.457031 206.167969 87.5625 205.738281 87.5625 C 204.8125 87.5625 204.046875 87.164063 203.4375 86.375 C 202.742188 85.46875 202.390625 84.253906 202.390625 82.730469 C 202.390625 81.710938 202.546875 80.816406 202.855469 80.050781 C 203.160156 79.285156 203.566406 78.722656 204.066406 78.367188 C 204.566406 78.007813 205.125 77.828125 205.746094 77.828125 C 206.199219 77.828125 206.617188 77.941406 206.992188 78.171875 C 207.367188 78.398438 207.699219 78.738281 207.988281 79.191406 L 207.988281 78.046875 L 209.195313 78.046875 L 209.195313 86.269531 C 209.195313 87.734375 209.078125 88.777344 208.839844 89.402344 C 208.605469 90.027344 208.21875 90.519531 207.679688 90.878906 C 207.140625 91.242188 206.496094 91.421875 205.738281 91.421875 C 204.738281 91.421875 203.96875 91.152344 203.429688 90.605469 C 202.890625 90.0625 202.632813 89.308594 202.648438 88.347656 Z M 202.648438 88.347656 "/>
<path style=" stroke:none;fill-rule:evenodd;fill:rgb(100%,100%,100%);fill-opacity:1;" d="M 193.777344 87.34375 L 193.777344 78.25 L 195.039063 78.25 L 195.039063 79.542969 C 195.34375 79.039063 195.714844 78.664063 196.152344 78.417969 C 196.589844 78.167969 197.097656 78.042969 197.667969 78.042969 C 198.105469 78.042969 198.519531 78.121094 198.894531 78.277344 C 199.269531 78.4375 199.574219 78.640625 199.800781 78.894531 C 200.035156 79.148438 200.207031 79.480469 200.320313 79.882813 C 200.433594 80.289063 200.492188 80.914063 200.492188 81.75 L 200.492188 87.34375 L 199.085938 87.34375 L 199.085938 81.808594 C 199.085938 81.144531 199.027344 80.65625 198.894531 80.34375 C 198.769531 80.039063 198.574219 79.800781 198.304688 79.632813 C 198.035156 79.464844 197.726563 79.378906 197.371094 79.378906 C 196.703125 79.378906 196.167969 79.605469 195.769531 80.054688 C 195.371094 80.507813 195.171875 81.28125 195.171875 82.378906 L 195.171875 87.34375 Z M 193.777344 87.34375 "/>
<path style=" stroke:none;fill-rule:evenodd;fill:rgb(100%,100%,100%);fill-opacity:1;" d="M 189.675781 87.34375 L 191.070313 87.34375 L 191.070313 78.25 L 189.675781 78.25 Z M 189.675781 87.34375 "/>
<path style=" stroke:none;fill-rule:evenodd;fill:rgb(100%,100%,100%);fill-opacity:1;" d="M 181.960938 87.515625 L 181.960938 73.933594 L 183.355469 73.933594 L 183.355469 81.679688 L 186.671875 77.675781 L 188.484375 77.675781 L 184.453125 82.34375 L 188.261719 87.515625 L 186.855469 87.515625 L 183.355469 82.789063 L 183.355469 87.515625 Z M 181.960938 87.515625 "/>
<path style=" stroke:none;fill-rule:evenodd;fill:rgb(100%,100%,100%);fill-opacity:1;" d="M 176.679688 87.34375 L 176.679688 78.011719 L 177.941406 78.011719 L 177.941406 79.421875 C 178.265625 78.769531 178.558594 78.332031 178.828125 78.117188 C 179.09375 77.90625 179.398438 77.796875 179.734375 77.796875 C 180.199219 77.796875 180.679688 77.96875 181.164063 78.308594 L 180.691406 79.777344 C 180.339844 79.546875 180.003906 79.433594 179.675781 79.433594 C 179.378906 79.433594 179.105469 79.53125 178.859375 79.722656 C 178.613281 79.914063 178.4375 80.183594 178.339844 80.53125 C 178.160156 81.136719 178.074219 81.777344 178.074219 82.457031 L 178.074219 87.34375 Z M 176.679688 87.34375 "/>
<path style=" stroke:none;fill-rule:evenodd;fill:rgb(100%,100%,100%);fill-opacity:1;" d="M 168.628906 82.691406 C 168.628906 83.871094 168.863281 84.746094 169.335938 85.316406 C 169.8125 85.894531 170.402344 86.179688 171.101563 86.179688 C 171.757813 86.179688 172.324219 85.890625 172.792969 85.308594 C 173.265625 84.730469 173.5 83.859375 173.5 82.691406 C 173.5 81.523438 173.261719 80.652344 172.789063 80.078125 C 172.3125 79.503906 171.726563 79.21875 171.027344 79.21875 C 170.363281 79.21875 169.796875 79.507813 169.328125 80.082031 C 168.859375 80.65625 168.628906 81.53125 168.628906 82.691406 Z M 167.191406 82.691406 C 167.191406 81.121094 167.558594 79.9375 168.289063 79.140625 C 169.019531 78.339844 169.945313 77.941406 171.066406 77.941406 C 172.160156 77.941406 173.085938 78.339844 173.824219 79.140625 C 174.5625 79.9375 174.933594 81.089844 174.933594 82.597656 C 174.933594 84.234375 174.570313 85.449219 173.839844 86.246094 C 173.113281 87.046875 172.1875 87.445313 171.066406 87.445313 C 169.957031 87.445313 169.035156 87.046875 168.300781 86.246094 C 167.5625 85.441406 167.191406 84.257813 167.191406 82.691406 Z M 167.191406 82.691406 "/>
<path style=" stroke:none;fill-rule:evenodd;fill:rgb(100%,100%,100%);fill-opacity:1;" d="M 156.363281 87.34375 L 153.714844 74.789063 L 155.070313 74.789063 L 156.589844 83.015625 C 156.75 83.863281 156.890625 84.722656 157.011719 85.585938 L 157.460938 83.265625 L 159.363281 74.789063 L 160.957031 74.789063 L 162.386719 81.144531 C 162.734375 82.691406 162.996094 84.171875 163.164063 85.585938 C 163.292969 84.769531 163.457031 83.863281 163.65625 82.855469 L 165.226563 74.789063 L 166.554688 74.789063 L 163.8125 87.34375 L 162.542969 87.34375 L 160.4375 77.777344 L 160.117188 76.304688 C 160.023438 76.851563 159.929688 77.34375 159.828125 77.777344 L 157.710938 87.34375 Z M 156.363281 87.34375 "/>
<path style=" stroke:none;fill-rule:evenodd;fill:rgb(100%,100%,100%);fill-opacity:1;" d="M 148.695313 85.945313 L 148.910156 87.308594 C 148.480469 87.398438 148.089844 87.445313 147.746094 87.445313 C 147.199219 87.445313 146.765625 87.359375 146.433594 87.1875 C 146.101563 87.011719 145.875 86.773438 145.75 86.46875 C 145.625 86.167969 145.566406 85.5625 145.566406 84.664063 L 145.566406 79.429688 L 144.425781 79.429688 L 144.425781 78.230469 L 145.566406 78.230469 L 145.566406 75.980469 L 147.121094 75.054688 L 147.121094 78.230469 L 148.695313 78.230469 L 148.695313 79.429688 L 147.121094 79.429688 L 147.121094 84.746094 C 147.121094 85.238281 147.164063 85.558594 147.257813 85.699219 C 147.390625 85.90625 147.640625 86.007813 148.007813 86.007813 C 148.1875 86.007813 148.414063 85.988281 148.695313 85.945313 Z M 148.695313 85.945313 "/>
<path style=" stroke:none;fill-rule:evenodd;fill:rgb(100%,100%,100%);fill-opacity:1;" d="M 138.066406 81.820313 L 142.203125 81.820313 C 142.148438 81.03125 141.976563 80.445313 141.703125 80.054688 C 141.296875 79.492188 140.785156 79.207031 140.160156 79.207031 C 139.597656 79.207031 139.117188 79.445313 138.71875 79.914063 C 138.320313 80.386719 138.105469 81.019531 138.066406 81.820313 Z M 142.195313 84.3125 L 143.488281 84.507813 C 143.273438 85.480469 142.882813 86.210938 142.316406 86.707031 C 141.753906 87.199219 141.054688 87.445313 140.21875 87.445313 C 139.167969 87.445313 138.320313 87.046875 137.667969 86.246094 C 137.019531 85.441406 136.695313 84.28125 136.695313 82.773438 C 136.695313 81.203125 137.023438 80.003906 137.675781 79.179688 C 138.332031 78.351563 139.164063 77.941406 140.167969 77.941406 C 141.125 77.941406 141.929688 78.347656 142.566406 79.15625 C 143.210938 79.96875 143.53125 81.140625 143.53125 82.675781 L 143.523438 83.085938 L 137.988281 83.085938 C 138.039063 84.109375 138.273438 84.878906 138.695313 85.398438 C 139.113281 85.917969 139.625 86.179688 140.226563 86.179688 C 141.167969 86.179688 141.828125 85.558594 142.195313 84.3125 Z M 142.195313 84.3125 "/>
<path style=" stroke:none;fill-rule:evenodd;fill:rgb(100%,100%,100%);fill-opacity:1;" d="M 126.601563 87.34375 L 126.601563 74.539063 L 127.964844 74.539063 L 133.242188 84.59375 L 133.242188 74.539063 L 134.515625 74.539063 L 134.515625 87.34375 L 133.152344 87.34375 L 127.878906 77.28125 L 127.878906 87.34375 Z M 126.601563 87.34375 "/>
<path style=" stroke:none;fill-rule:evenodd;fill:rgb(100%,100%,100%);fill-opacity:1;" d="M 120.601563 85.898438 L 120.808594 87.261719 C 120.386719 87.351563 120.007813 87.398438 119.671875 87.398438 C 119.136719 87.398438 118.710938 87.3125 118.386719 87.136719 C 118.066406 86.964844 117.84375 86.726563 117.71875 86.421875 C 117.597656 86.121094 117.539063 85.515625 117.539063 84.617188 L 117.539063 79.382813 L 116.421875 79.382813 L 116.421875 78.183594 L 117.539063 78.183594 L 117.539063 75.929688 L 119.0625 75.007813 L 119.0625 78.183594 L 120.601563 78.183594 L 120.601563 79.382813 L 119.0625 79.382813 L 119.0625 84.699219 C 119.0625 85.191406 119.101563 85.511719 119.195313 85.652344 C 119.324219 85.859375 119.570313 85.960938 119.929688 85.960938 C 120.101563 85.960938 120.324219 85.941406 120.601563 85.898438 Z M 120.601563 85.898438 "/>
<path style=" stroke:none;fill-rule:evenodd;fill:rgb(100%,100%,100%);fill-opacity:1;" d="M 107.765625 87.34375 L 107.765625 77.941406 L 109.027344 77.941406 L 109.027344 79.277344 C 109.332031 78.757813 109.703125 78.371094 110.140625 78.113281 C 110.582031 77.855469 111.085938 77.726563 111.65625 77.726563 C 112.097656 77.726563 112.507813 77.808594 112.882813 77.972656 C 113.257813 78.132813 113.5625 78.347656 113.792969 78.609375 C 114.023438 78.871094 114.195313 79.214844 114.308594 79.628906 C 114.421875 80.050781 114.480469 80.695313 114.480469 81.5625 L 114.480469 87.34375 L 113.078125 87.34375 L 113.078125 81.621094 C 113.078125 80.933594 113.015625 80.429688 112.886719 80.109375 C 112.757813 79.789063 112.5625 79.542969 112.292969 79.371094 C 112.023438 79.195313 111.714844 79.109375 111.359375 79.109375 C 110.691406 79.109375 110.15625 79.34375 109.757813 79.808594 C 109.359375 80.273438 109.160156 81.074219 109.160156 82.207031 L 109.160156 87.34375 Z M 107.765625 87.34375 "/>
<path style=" stroke:none;fill-rule:evenodd;fill:rgb(100%,100%,100%);fill-opacity:1;" d="M 100.554688 81.820313 L 104.589844 81.820313 C 104.535156 81.03125 104.371094 80.445313 104.101563 80.054688 C 103.707031 79.492188 103.207031 79.207031 102.59375 79.207031 C 102.046875 79.207031 101.582031 79.445313 101.191406 79.914063 C 100.804688 80.386719 100.589844 81.019531 100.554688 81.820313 Z M 104.582031 84.3125 L 105.84375 84.507813 C 105.636719 85.480469 105.253906 86.210938 104.703125 86.707031 C 104.152344 87.199219 103.46875 87.445313 102.65625 87.445313 C 101.628906 87.445313 100.800781 87.046875 100.164063 86.246094 C 99.535156 85.441406 99.214844 84.28125 99.214844 82.773438 C 99.214844 81.203125 99.535156 80.003906 100.175781 79.179688 C 100.816406 78.351563 101.625 77.941406 102.605469 77.941406 C 103.539063 77.941406 104.324219 78.347656 104.945313 79.15625 C 105.574219 79.96875 105.886719 81.140625 105.886719 82.675781 L 105.878906 83.085938 L 100.476563 83.085938 C 100.527344 84.109375 100.757813 84.878906 101.167969 85.398438 C 101.578125 85.917969 102.078125 86.179688 102.664063 86.179688 C 103.582031 86.179688 104.222656 85.558594 104.582031 84.3125 Z M 104.582031 84.3125 "/>
<path style=" stroke:none;fill-rule:evenodd;fill:rgb(100%,100%,100%);fill-opacity:1;" d="M 91.578125 82.570313 C 91.578125 83.824219 91.796875 84.742188 92.234375 85.320313 C 92.667969 85.898438 93.203125 86.1875 93.835938 86.1875 C 94.464844 86.1875 95.003906 85.90625 95.445313 85.339844 C 95.890625 84.773438 96.109375 83.871094 96.109375 82.640625 C 96.109375 81.433594 95.882813 80.542969 95.425781 79.957031 C 94.972656 79.367188 94.421875 79.074219 93.765625 79.074219 C 93.1875 79.074219 92.675781 79.367188 92.234375 79.957031 C 91.800781 80.542969 91.578125 81.414063 91.578125 82.570313 Z M 90.410156 88.328125 L 91.777344 88.5625 C 91.839844 89.074219 92.027344 89.453125 92.347656 89.703125 C 92.664063 89.953125 93.101563 90.078125 93.664063 90.078125 C 94.277344 90.078125 94.765625 89.9375 95.128906 89.65625 C 95.492188 89.378906 95.742188 88.960938 95.875 88.40625 C 95.953125 88.070313 95.996094 87.359375 95.996094 86.277344 C 95.691406 86.695313 95.351563 87.003906 94.972656 87.214844 C 94.59375 87.425781 94.171875 87.53125 93.710938 87.53125 C 92.722656 87.53125 91.90625 87.136719 91.253906 86.339844 C 90.511719 85.425781 90.136719 84.203125 90.136719 82.667969 C 90.136719 81.640625 90.300781 80.738281 90.628906 79.96875 C 90.957031 79.199219 91.390625 78.632813 91.925781 78.273438 C 92.460938 77.910156 93.058594 77.730469 93.722656 77.730469 C 94.207031 77.730469 94.652344 77.84375 95.050781 78.074219 C 95.453125 78.300781 95.808594 78.644531 96.121094 79.101563 L 96.121094 77.949219 L 97.40625 77.949219 L 97.40625 86.230469 C 97.40625 87.707031 97.28125 88.757813 97.03125 89.386719 C 96.777344 90.015625 96.363281 90.511719 95.789063 90.875 C 95.214844 91.242188 94.519531 91.421875 93.710938 91.421875 C 92.644531 91.421875 91.820313 91.148438 91.246094 90.601563 C 90.667969 90.050781 90.394531 89.292969 90.410156 88.328125 Z M 90.410156 88.328125 "/>
<path style=" stroke:none;fill-rule:evenodd;fill:rgb(100%,100%,100%);fill-opacity:1;" d="M 87.007813 87.300781 L 88.402344 87.300781 L 88.402344 78.207031 L 87.007813 78.207031 Z M 87.007813 87.300781 "/>
<path style=" stroke:none;fill-rule:evenodd;fill:rgb(100%,100%,100%);fill-opacity:1;" d="M 79.6875 87.34375 L 81.078125 87.34375 L 81.078125 74.789063 L 79.6875 74.789063 Z M 79.6875 87.34375 "/>
<path style=" stroke:none;fill-rule:evenodd;fill:rgb(100%,100%,100%);fill-opacity:1;" d="M 71.921875 81.820313 L 76.527344 81.820313 C 76.464844 81.03125 76.277344 80.445313 75.972656 80.054688 C 75.523438 79.492188 74.949219 79.207031 74.253906 79.207031 C 73.628906 79.207031 73.09375 79.445313 72.652344 79.914063 C 72.207031 80.386719 71.964844 81.019531 71.921875 81.820313 Z M 76.523438 84.3125 L 77.960938 84.507813 C 77.722656 85.480469 77.285156 86.210938 76.65625 86.707031 C 76.03125 87.199219 75.25 87.445313 74.320313 87.445313 C 73.148438 87.445313 72.203125 87.046875 71.480469 86.246094 C 70.757813 85.441406 70.394531 84.28125 70.394531 82.773438 C 70.394531 81.203125 70.761719 80.003906 71.488281 79.179688 C 72.21875 78.351563 73.144531 77.941406 74.261719 77.941406 C 75.332031 77.941406 76.222656 78.347656 76.9375 79.15625 C 77.652344 79.96875 78.007813 81.140625 78.007813 82.675781 L 78 83.085938 L 71.835938 83.085938 C 71.894531 84.109375 72.15625 84.878906 72.621094 85.398438 C 73.089844 85.917969 73.660156 86.179688 74.332031 86.179688 C 75.378906 86.179688 76.109375 85.558594 76.523438 84.3125 Z M 76.523438 84.3125 "/>
<path style=" stroke:none;fill-rule:evenodd;fill:rgb(100%,100%,100%);fill-opacity:1;" d="M 69.269531 85.945313 L 69.496094 87.308594 C 69.039063 87.398438 68.628906 87.445313 68.265625 87.445313 C 67.6875 87.445313 67.222656 87.359375 66.871094 87.1875 C 66.523438 87.011719 66.28125 86.773438 66.148438 86.46875 C 66.019531 86.167969 65.953125 85.5625 65.953125 84.664063 L 65.953125 79.429688 L 64.742188 79.429688 L 64.742188 78.230469 L 65.953125 78.230469 L 65.953125 75.980469 L 67.601563 75.054688 L 67.601563 78.230469 L 69.269531 78.230469 L 69.269531 79.429688 L 67.601563 79.429688 L 67.601563 84.746094 C 67.601563 85.238281 67.648438 85.558594 67.746094 85.699219 C 67.890625 85.90625 68.152344 86.007813 68.542969 86.007813 C 68.730469 86.007813 68.972656 85.988281 69.269531 85.945313 Z M 69.269531 85.945313 "/>
<path style=" stroke:none;fill-rule:evenodd;fill:rgb(100%,100%,100%);fill-opacity:1;" d="M 56.671875 87.34375 L 56.671875 78.25 L 57.933594 78.25 L 57.933594 79.542969 C 58.238281 79.039063 58.613281 78.664063 59.046875 78.417969 C 59.488281 78.167969 59.992188 78.042969 60.5625 78.042969 C 61.003906 78.042969 61.414063 78.121094 61.789063 78.277344 C 62.164063 78.4375 62.46875 78.640625 62.699219 78.894531 C 62.933594 79.148438 63.105469 79.480469 63.21875 79.882813 C 63.332031 80.289063 63.390625 80.914063 63.390625 81.75 L 63.390625 87.34375 L 61.984375 87.34375 L 61.984375 81.808594 C 61.984375 81.144531 61.921875 80.65625 61.792969 80.34375 C 61.667969 80.039063 61.46875 79.800781 61.199219 79.632813 C 60.933594 79.464844 60.621094 79.378906 60.269531 79.378906 C 59.597656 79.378906 59.066406 79.605469 58.667969 80.054688 C 58.269531 80.507813 58.066406 81.28125 58.066406 82.378906 L 58.066406 87.34375 Z M 56.671875 87.34375 "/>
<path style=" stroke:none;fill-rule:evenodd;fill:rgb(100%,100%,100%);fill-opacity:1;" d="M 52.898438 87.34375 L 54.40625 87.34375 L 54.40625 74.789063 L 52.898438 74.789063 Z M 52.898438 87.34375 "/>
<path style=" stroke:none;fill-rule:evenodd;fill:rgb(100%,100%,100%);fill-opacity:1;" d="M 35.371094 87.066406 L 35.371094 74.511719 L 41.820313 74.511719 L 41.820313 75.992188 L 36.550781 75.992188 L 36.550781 79.835938 L 41.484375 79.835938 L 41.484375 81.308594 L 36.550781 81.308594 L 36.550781 85.582031 L 42.027344 85.582031 L 42.027344 87.066406 Z M 35.371094 87.066406 "/>
<path style=" stroke:none;fill-rule:evenodd;fill:rgb(100%,100%,100%);fill-opacity:1;" d="M 25.804688 83.453125 L 27.03125 83.316406 C 27.097656 84.011719 27.246094 84.546875 27.480469 84.929688 C 27.710938 85.316406 28.039063 85.625 28.472656 85.859375 C 28.902344 86.09375 29.390625 86.210938 29.929688 86.210938 C 30.707031 86.210938 31.304688 86.015625 31.734375 85.617188 C 32.164063 85.21875 32.375 84.707031 32.375 84.070313 C 32.375 83.699219 32.296875 83.375 32.144531 83.101563 C 31.988281 82.824219 31.753906 82.59375 31.441406 82.417969 C 31.125 82.242188 30.449219 81.992188 29.40625 81.675781 C 28.480469 81.386719 27.816406 81.097656 27.425781 80.808594 C 27.03125 80.515625 26.726563 80.148438 26.511719 79.699219 C 26.289063 79.25 26.179688 78.746094 26.179688 78.179688 C 26.179688 77.164063 26.496094 76.332031 27.121094 75.6875 C 27.75 75.042969 28.597656 74.71875 29.660156 74.71875 C 30.390625 74.71875 31.027344 74.871094 31.578125 75.171875 C 32.125 75.476563 32.550781 75.910156 32.855469 76.472656 C 33.15625 77.042969 33.320313 77.703125 33.339844 78.46875 L 32.089844 78.589844 C 32.023438 77.773438 31.792969 77.167969 31.390625 76.773438 C 30.988281 76.378906 30.425781 76.183594 29.699219 76.183594 C 28.964844 76.183594 28.402344 76.355469 28.015625 76.703125 C 27.628906 77.046875 27.433594 77.492188 27.433594 78.042969 C 27.433594 78.550781 27.574219 78.945313 27.859375 79.226563 C 28.144531 79.503906 28.78125 79.785156 29.773438 80.074219 C 30.746094 80.351563 31.425781 80.59375 31.820313 80.800781 C 32.421875 81.117188 32.871094 81.539063 33.175781 82.0625 C 33.484375 82.585938 33.636719 83.207031 33.636719 83.933594 C 33.636719 84.652344 33.476563 85.308594 33.15625 85.902344 C 32.832031 86.492188 32.394531 86.9375 31.839844 87.25 C 31.285156 87.554688 30.617188 87.710938 29.839844 87.710938 C 28.621094 87.710938 27.652344 87.328125 26.929688 86.566406 C 26.207031 85.800781 25.832031 84.761719 25.804688 83.453125 Z M 25.804688 83.453125 "/>
<path style=" stroke:none;fill-rule:evenodd;fill:rgb(100%,100%,100%);fill-opacity:1;" d="M 19.59375 80.480469 L 21.796875 80.480469 C 22.492188 80.480469 23 80.289063 23.320313 79.910156 C 23.644531 79.53125 23.800781 78.960938 23.800781 78.191406 C 23.800781 77.695313 23.722656 77.269531 23.566406 76.914063 C 23.40625 76.5625 23.214844 76.320313 22.988281 76.1875 C 22.765625 76.054688 22.359375 75.992188 21.777344 75.992188 L 19.59375 75.992188 Z M 18.46875 87.066406 L 18.46875 74.511719 L 21.675781 74.511719 C 22.433594 74.511719 22.988281 74.589844 23.347656 74.75 C 23.839844 74.964844 24.234375 75.371094 24.527344 75.957031 C 24.820313 76.542969 24.964844 77.265625 24.964844 78.125 C 24.964844 79.253906 24.726563 80.179688 24.246094 80.890625 C 23.769531 81.605469 22.945313 81.960938 21.777344 81.960938 L 19.59375 81.960938 L 19.59375 87.066406 Z M 18.46875 87.066406 "/>
<path style=" stroke:none;fill-rule:evenodd;fill:rgb(100%,100%,100%);fill-opacity:1;" d="M 83.164063 86.964844 L 84.558594 86.964844 L 84.558594 74.40625 L 83.164063 74.40625 Z M 83.164063 86.964844 "/>
<path style=" stroke:none;fill-rule:evenodd;fill:rgb(100%,100%,100%);fill-opacity:1;" d="M 190.378906 73.980469 C 190.820313 73.980469 191.175781 74.398438 191.175781 74.917969 C 191.175781 75.433594 190.820313 75.855469 190.378906 75.855469 C 189.9375 75.855469 189.578125 75.433594 189.578125 74.917969 C 189.578125 74.398438 189.9375 73.980469 190.378906 73.980469 Z M 190.378906 73.980469 "/>
<path style=" stroke:none;fill-rule:evenodd;fill:rgb(100%,100%,100%);fill-opacity:1;" d="M 190.378906 73.980469 C 190.820313 73.980469 191.175781 74.398438 191.175781 74.917969 C 191.175781 75.433594 190.820313 75.855469 190.378906 75.855469 C 189.9375 75.855469 189.578125 75.433594 189.578125 74.917969 C 189.578125 74.398438 189.9375 73.980469 190.378906 73.980469 Z M 190.378906 73.980469 "/>
<path style=" stroke:none;fill-rule:evenodd;fill:rgb(100%,100%,100%);fill-opacity:1;" d="M 87.761719 73.953125 C 88.203125 73.953125 88.5625 74.371094 88.5625 74.890625 C 88.5625 75.40625 88.203125 75.824219 87.761719 75.824219 C 87.324219 75.824219 86.964844 75.40625 86.964844 74.890625 C 86.964844 74.371094 87.324219 73.953125 87.761719 73.953125 Z M 87.761719 73.953125 "/>
<path style=" stroke:none;fill-rule:evenodd;fill:rgb(100%,100%,100%);fill-opacity:1;" d="M 45.175781 84.644531 C 45.863281 84.644531 46.417969 85.296875 46.417969 86.101563 C 46.417969 86.90625 45.863281 87.558594 45.175781 87.558594 C 44.488281 87.558594 43.933594 86.90625 43.933594 86.101563 C 43.933594 85.296875 44.488281 84.644531 45.175781 84.644531 Z M 45.175781 84.644531 "/>
<path style=" stroke:none;fill-rule:evenodd;fill:rgb(100%,100%,100%);fill-opacity:1;" d="M 212.417969 85.152344 C 213.105469 85.152344 213.660156 85.804688 213.660156 86.609375 C 213.660156 87.414063 213.105469 88.066406 212.417969 88.066406 C 211.730469 88.066406 211.175781 87.414063 211.175781 86.609375 C 211.175781 85.804688 211.730469 85.152344 212.417969 85.152344 Z M 212.417969 85.152344 "/>
<path style=" stroke:none;fill-rule:evenodd;fill:rgb(0%,58.006287%,66.209412%);fill-opacity:1;" d="M 36.453125 7.683594 L 36.453125 14.359375 C 33.660156 13.246094 30.710938 12.597656 28.316406 12.597656 C 25.367188 12.597656 23.691406 13.617188 23.691406 15.472656 C 23.691406 16.675781 24.410156 17.511719 26.484375 18.625 L 32.066406 21.5 C 36.453125 23.816406 38.6875 27.15625 38.6875 31.605469 C 38.6875 38.375 33.660156 42.644531 25.683594 42.644531 C 22.734375 42.644531 19.382813 42.179688 15.796875 41.160156 L 15.796875 34.296875 C 19.304688 35.410156 22.574219 35.964844 25.128906 35.964844 C 28.398438 35.964844 30.152344 34.945313 30.152344 32.90625 C 30.152344 31.699219 29.515625 30.867188 27.917969 30.03125 L 21.855469 26.878906 C 17.3125 24.558594 15.238281 21.40625 15.238281 16.957031 C 15.238281 10.464844 20.101563 6.382813 27.757813 6.382813 C 30.472656 6.382813 33.742188 6.847656 36.453125 7.683594 Z M 36.453125 7.683594 "/>
<path style=" stroke:none;fill-rule:evenodd;fill:rgb(0%,58.006287%,66.209412%);fill-opacity:1;" d="M 43.074219 41.902344 L 52.007813 41.902344 L 52.007813 7.125 L 43.074219 7.125 Z M 43.074219 41.902344 "/>
<path style=" stroke:none;fill-rule:evenodd;fill:rgb(0%,58.006287%,66.209412%);fill-opacity:1;" d="M 81.199219 7.125 L 81.199219 13.523438 L 67.640625 13.523438 L 67.640625 21.3125 L 79.445313 21.3125 L 79.445313 27.0625 L 67.640625 27.0625 L 67.640625 35.222656 L 81.359375 35.222656 L 81.359375 41.902344 L 58.945313 41.902344 L 58.945313 7.125 Z M 81.199219 7.125 "/>
<path style=" stroke:none;fill-rule:evenodd;fill:rgb(0%,58.006287%,66.209412%);fill-opacity:1;" d="M 123.550781 7.125 L 123.550781 41.902344 L 114.859375 41.902344 L 114.859375 18.996094 L 106.402344 42.179688 L 100.898438 42.179688 L 92.445313 18.996094 L 92.445313 41.902344 L 86.464844 41.902344 L 86.464844 7.125 L 97.390625 7.125 L 105.128906 28.269531 L 112.863281 7.125 Z M 123.550781 7.125 "/>
<path style=" stroke:none;fill-rule:evenodd;fill:rgb(0%,58.006287%,66.209412%);fill-opacity:1;" d="M 152.746094 7.125 L 152.746094 13.523438 L 139.183594 13.523438 L 139.183594 21.3125 L 150.988281 21.3125 L 150.988281 27.0625 L 139.183594 27.0625 L 139.183594 35.222656 L 152.902344 35.222656 L 152.902344 41.902344 L 130.492188 41.902344 L 130.492188 7.125 Z M 152.746094 7.125 "/>
<path style=" stroke:none;fill-rule:evenodd;fill:rgb(0%,58.006287%,66.209412%);fill-opacity:1;" d="M 184.328125 7.125 L 184.328125 41.902344 L 174.757813 41.902344 L 163.992188 19.550781 L 163.992188 41.902344 L 158.007813 41.902344 L 158.007813 7.125 L 167.820313 7.125 L 178.347656 29.105469 L 178.347656 7.125 Z M 184.328125 7.125 "/>
<path style=" stroke:none;fill-rule:evenodd;fill:rgb(0%,58.006287%,66.209412%);fill-opacity:1;" d="M 210.410156 7.683594 L 210.410156 14.359375 C 207.699219 13.246094 204.667969 12.597656 202.277344 12.597656 C 199.324219 12.597656 197.648438 13.617188 197.648438 15.472656 C 197.648438 16.769531 198.367188 17.417969 200.441406 18.625 L 206.023438 21.5 C 210.492188 23.816406 212.644531 27.15625 212.644531 31.605469 C 212.644531 38.375 207.621094 42.644531 199.644531 42.644531 C 196.691406 42.644531 193.34375 42.179688 189.753906 41.160156 L 189.753906 34.296875 C 193.261719 35.410156 196.535156 35.964844 199.007813 35.964844 C 202.355469 35.964844 204.191406 34.945313 204.191406 33 C 204.191406 31.699219 203.550781 30.867188 201.878906 30.03125 L 195.816406 26.878906 C 191.269531 24.558594 189.195313 21.40625 189.195313 16.957031 C 189.195313 10.464844 194.0625 6.382813 201.71875 6.382813 C 204.429688 6.382813 207.699219 6.847656 210.410156 7.683594 Z M 210.410156 7.683594 "/>
</g>
</svg>
