<?xml version="1.0" encoding="UTF-8"?>
<svg xmlns="http://www.w3.org/2000/svg" xmlns:xlink="http://www.w3.org/1999/xlink" width="562.4pt" height="226pt" viewBox="0 0 562.4 226" version="1.1">
<g id="surface1">
<path style="fill-rule:evenodd;fill:rgb(89.0625%,0%,8.616638%);fill-opacity:1;stroke-width:2.16;stroke-linecap:butt;stroke-linejoin:miter;stroke:rgb(89.0625%,0%,8.616638%);stroke-opacity:1;stroke-miterlimit:4;" d="M 1044.257813 2182.382813 L 770.78125 2182.382813 L 1.601563 62.890625 L 497.304688 62.890625 L 662.539063 501.601563 L 1426.015625 501.601563 L 1591.210938 62.890625 L 2086.914063 62.890625 L 1317.734375 2182.382813 Z M 1044.257813 2182.382813 " transform="matrix(0.1,0,0,-0.1,0,226)"/>
<path style="fill-rule:evenodd;fill:rgb(89.0625%,0%,8.616638%);fill-opacity:1;stroke-width:2.16;stroke-linecap:butt;stroke-linejoin:miter;stroke:rgb(89.0625%,0%,8.616638%);stroke-opacity:1;stroke-miterlimit:4;" d="M 2292.03125 2182.382813 L 3061.210938 2182.382813 C 3496.5625 2182.382813 3835.585938 1673.4375 3323.28125 1265.078125 C 3956.171875 1089.882813 3892.539063 62.890625 3049.804688 62.890625 L 2292.03125 62.890625 Z M 2292.03125 2182.382813 " transform="matrix(0.1,0,0,-0.1,0,226)"/>
<path style="fill-rule:evenodd;fill:rgb(89.0625%,0%,8.616638%);fill-opacity:1;stroke-width:2.16;stroke-linecap:butt;stroke-linejoin:miter;stroke:rgb(89.0625%,0%,8.616638%);stroke-opacity:1;stroke-miterlimit:4;" d="M 3959.882813 2176.328125 L 4729.0625 2176.328125 C 5164.414063 2176.328125 5503.4375 1667.382813 4991.132813 1259.023438 C 5624.023438 1083.828125 5560.390625 56.835938 4717.65625 56.835938 L 3959.882813 56.835938 Z M 3959.882813 2176.328125 " transform="matrix(0.1,0,0,-0.1,0,226)"/>
<path style="fill-rule:evenodd;fill:rgb(100%,100%,100%);fill-opacity:1;stroke-width:2.16;stroke-linecap:butt;stroke-linejoin:miter;stroke:rgb(100%,100%,100%);stroke-opacity:1;stroke-miterlimit:4;" d="M 4543.710938 2228.085938 L 4604.296875 2228.085938 L 4604.296875 1154.765625 L 5473.164063 1154.765625 L 5473.164063 1094.21875 L 4604.296875 1094.21875 L 4604.296875 1.757813 L 4543.710938 1.757813 L 4543.710938 1094.21875 L 2936.445313 1094.21875 L 2936.445313 7.8125 L 2875.898438 7.8125 L 2875.898438 1094.21875 L 1074.21875 1094.21875 L 1074.21875 364.882813 L 1013.632813 364.882813 L 1013.632813 1094.21875 L 241.679688 1094.21875 L 241.679688 1154.765625 L 1013.632813 1154.765625 L 1013.632813 2259.375 L 1074.21875 2259.375 L 1074.21875 1154.765625 L 2875.898438 1154.765625 L 2875.898438 2234.140625 L 2936.445313 2234.140625 L 2936.445313 1154.765625 L 4543.710938 1154.765625 Z M 4543.710938 2228.085938 " transform="matrix(0.1,0,0,-0.1,0,226)"/>
</g>
</svg>
