<?xml version="1.0" encoding="UTF-8"?>
<svg xmlns="http://www.w3.org/2000/svg" xmlns:xlink="http://www.w3.org/1999/xlink" width="144.17pt" height="21.6pt" viewBox="0 0 144.17 21.6" version="1.1">
<defs>
<clipPath id="clip1">
  <path d="M 19 4 L 34 4 L 34 21.601563 L 19 21.601563 Z M 19 4 "/>
</clipPath>
<clipPath id="clip2">
  <path d="M 49 3 L 64 3 L 64 21.601563 L 49 21.601563 Z M 49 3 "/>
</clipPath>
<clipPath id="clip3">
  <path d="M 63 4 L 81 4 L 81 21.601563 L 63 21.601563 Z M 63 4 "/>
</clipPath>
<clipPath id="clip4">
  <path d="M 113 3 L 128 3 L 128 21.601563 L 113 21.601563 Z M 113 3 "/>
</clipPath>
<clipPath id="clip5">
  <path d="M 127 4 L 144.171875 4 L 144.171875 21.601563 L 127 21.601563 Z M 127 4 "/>
</clipPath>
<clipPath id="clip6">
  <path d="M 97 3 L 113 3 L 113 21.601563 L 97 21.601563 Z M 97 3 "/>
</clipPath>
<clipPath id="clip7">
  <path d="M 78 0 L 99 0 L 99 21.601563 L 78 21.601563 Z M 78 0 "/>
</clipPath>
<clipPath id="clip8">
  <path d="M 33 4 L 51 4 L 51 21.601563 L 33 21.601563 Z M 33 4 "/>
</clipPath>
<clipPath id="clip9">
  <path d="M 0 0 L 20 0 L 20 21.601563 L 0 21.601563 Z M 0 0 "/>
</clipPath>
</defs>
<g id="surface1">
<g clip-path="url(#clip1)" clip-rule="nonzero">
<path style=" stroke:none;fill-rule:evenodd;fill:rgb(13.699341%,12.199402%,12.5%);fill-opacity:1;" d="M 24.578125 4.152344 L 19.046875 4.789063 L 19.046875 5.535156 L 19.789063 5.640625 C 21.386719 5.746094 21.917969 5.855469 21.917969 7.238281 L 21.917969 21.28125 L 32.878906 21.28125 L 33.089844 17.238281 L 31.8125 17.238281 L 31.707031 17.449219 C 31.496094 19.046875 31.386719 19.898438 29.472656 19.898438 L 27.027344 19.898438 C 24.898438 19.898438 24.898438 19.898438 24.898438 17.878906 L 24.898438 4.152344 L 24.578125 4.152344 "/>
</g>
<g clip-path="url(#clip2)" clip-rule="nonzero">
<path style=" stroke:none;fill-rule:evenodd;fill:rgb(13.699341%,12.199402%,12.5%);fill-opacity:1;" d="M 49.15625 12.128906 C 49.15625 17.769531 52.5625 21.601563 57.5625 21.601563 C 60.328125 21.601563 61.710938 21.175781 62.988281 20.855469 L 63.203125 20.855469 L 63.203125 19.367188 L 62.882813 19.367188 C 61.5 19.792969 60.222656 20.003906 59.15625 20.003906 C 54.582031 20.003906 52.347656 17.238281 52.347656 11.492188 C 52.347656 7.769531 53.945313 5.429688 56.710938 5.429688 C 58.628906 5.429688 59.691406 6.277344 60.007813 7.769531 L 60.007813 7.980469 L 63.203125 7.980469 L 63.203125 7.769531 C 63.09375 6.8125 62.351563 3.9375 56.925781 3.9375 C 51.710938 3.9375 49.15625 6.703125 49.15625 12.128906 "/>
</g>
<g clip-path="url(#clip3)" clip-rule="nonzero">
<path style=" stroke:none;fill-rule:evenodd;fill:rgb(13.699341%,12.199402%,12.5%);fill-opacity:1;" d="M 68.839844 4.152344 L 63.414063 4.789063 L 63.414063 5.535156 L 64.054688 5.640625 C 65.648438 5.746094 66.179688 5.855469 66.179688 7.238281 L 66.179688 21.28125 L 69.160156 21.28125 C 69.160156 21.28125 69.160156 13.941406 69.160156 13.089844 C 69.691406 13.726563 76.609375 21.28125 76.609375 21.28125 L 80.226563 21.28125 C 80.226563 21.28125 71.609375 11.917969 71.289063 11.601563 C 71.609375 11.386719 79.160156 4.152344 79.160156 4.152344 L 76.609375 4.152344 C 76.609375 4.152344 69.796875 10.746094 69.160156 11.386719 C 69.160156 10.429688 69.160156 4.152344 69.160156 4.152344 L 68.839844 4.152344 "/>
</g>
<g clip-path="url(#clip4)" clip-rule="nonzero">
<path style=" stroke:none;fill-rule:evenodd;fill:rgb(13.699341%,12.199402%,12.5%);fill-opacity:1;" d="M 113.636719 12.128906 C 113.636719 17.769531 117.039063 21.601563 122.148438 21.601563 C 124.914063 21.601563 126.296875 21.175781 127.574219 20.855469 L 127.679688 20.855469 L 127.679688 19.367188 L 127.46875 19.367188 C 126.085938 19.792969 124.808594 20.003906 123.742188 20.003906 C 119.167969 20.003906 116.933594 17.238281 116.933594 11.492188 C 116.933594 7.769531 118.53125 5.429688 121.296875 5.429688 C 123.105469 5.429688 124.167969 6.277344 124.488281 7.769531 L 124.488281 7.980469 L 127.785156 7.980469 L 127.679688 7.769531 C 127.574219 6.8125 126.828125 3.9375 121.507813 3.9375 C 116.296875 3.9375 113.636719 6.703125 113.636719 12.128906 "/>
</g>
<g clip-path="url(#clip5)" clip-rule="nonzero">
<path style=" stroke:none;fill-rule:evenodd;fill:rgb(13.699341%,12.199402%,12.5%);fill-opacity:1;" d="M 132.894531 4.152344 L 127.46875 4.789063 L 127.46875 5.535156 L 128.105469 5.640625 C 129.703125 5.746094 130.234375 5.855469 130.234375 7.238281 L 130.234375 21.28125 L 133.210938 21.28125 C 133.210938 21.28125 133.210938 13.941406 133.210938 13.089844 C 133.746094 13.726563 140.660156 21.28125 140.660156 21.28125 L 144.171875 21.28125 C 144.171875 21.28125 135.660156 11.917969 135.339844 11.601563 C 135.660156 11.386719 143.214844 4.152344 143.214844 4.152344 L 140.660156 4.152344 C 140.660156 4.152344 133.851563 10.746094 133.210938 11.386719 C 133.210938 10.429688 133.210938 4.152344 133.210938 4.152344 L 132.894531 4.152344 "/>
</g>
<g clip-path="url(#clip6)" clip-rule="nonzero">
<path style=" stroke:none;fill-rule:evenodd;fill:rgb(13.699341%,12.199402%,12.5%);fill-opacity:1;" d="M 104.910156 20.109375 C 101.082031 20.109375 100.441406 16.601563 100.441406 12.769531 C 100.441406 8.832031 101.082031 5.320313 104.910156 5.320313 C 108.847656 5.320313 109.378906 8.832031 109.378906 12.769531 C 109.378906 16.601563 108.847656 20.109375 104.910156 20.109375 Z M 104.910156 3.9375 C 99.695313 3.9375 97.25 6.703125 97.25 12.769531 C 97.25 18.726563 99.695313 21.601563 104.910156 21.601563 C 110.125 21.601563 112.570313 18.726563 112.570313 12.769531 C 112.570313 6.8125 110.125 3.9375 104.910156 3.9375 "/>
</g>
<g clip-path="url(#clip7)" clip-rule="nonzero">
<path style=" stroke:none;fill-rule:evenodd;fill:rgb(13.699341%,12.199402%,12.5%);fill-opacity:1;" d="M 86.398438 9.363281 C 86.398438 9.363281 85.863281 9.363281 85.652344 9.363281 C 85.652344 8.9375 85.652344 3.511719 85.652344 3.511719 C 85.652344 1.808594 85.652344 1.597656 87.992188 1.597656 C 90.226563 1.597656 93.097656 2.234375 93.097656 5.214844 C 93.097656 9.363281 88.84375 9.363281 86.398438 9.363281 Z M 90.972656 10.746094 C 95.015625 10.214844 96.929688 8.515625 96.929688 5.535156 C 96.929688 0.640625 92.570313 0 88.84375 0 L 78.523438 0 L 78.523438 0.851563 L 78.84375 0.960938 C 81.714844 1.492188 82.140625 1.492188 82.140625 3.511719 L 82.140625 21.28125 L 85.652344 21.28125 C 85.652344 21.28125 85.652344 11.386719 85.652344 11.066406 C 85.972656 11.066406 86.929688 11.066406 87.035156 11.066406 C 87.25 11.171875 94.164063 21.28125 94.164063 21.28125 L 98.207031 21.28125 C 98.207031 21.28125 91.289063 11.28125 90.972656 10.746094 "/>
</g>
<g clip-path="url(#clip8)" clip-rule="nonzero">
<path style=" stroke:none;fill-rule:evenodd;fill:rgb(13.699341%,12.199402%,12.5%);fill-opacity:1;" d="M 38.515625 14.363281 C 38.730469 13.832031 41.070313 8.300781 41.390625 7.554688 C 41.710938 8.300781 44.050781 13.832031 44.261719 14.363281 C 43.730469 14.363281 39.046875 14.363281 38.515625 14.363281 Z M 42.878906 4.152344 L 37.664063 4.152344 L 37.664063 5 L 37.773438 5 C 39.15625 5.320313 39.792969 5.535156 39.792969 5.960938 C 39.792969 6.277344 39.582031 6.8125 39.367188 7.238281 L 33.410156 21.28125 L 35.644531 21.28125 C 35.644531 21.28125 37.773438 16.066406 37.878906 15.746094 C 38.199219 15.746094 44.476563 15.746094 44.792969 15.746094 C 44.902344 15.960938 47.136719 21.28125 47.136719 21.28125 L 50.433594 21.28125 L 42.878906 4.152344 "/>
</g>
<g clip-path="url(#clip9)" clip-rule="nonzero">
<path style=" stroke:none;fill-rule:evenodd;fill:rgb(13.699341%,12.199402%,12.5%);fill-opacity:1;" d="M 9.789063 19.683594 C 7.023438 19.683594 7.023438 19.683594 7.023438 17.34375 C 7.023438 17.34375 7.023438 11.28125 7.023438 10.855469 C 7.34375 10.855469 8.617188 10.855469 8.617188 10.855469 C 10.746094 10.855469 15.746094 10.855469 15.746094 15.429688 C 15.746094 18.195313 13.726563 19.683594 9.789063 19.683594 Z M 7.023438 3.726563 C 7.023438 1.808594 7.023438 1.597656 9.46875 1.597656 C 12.875 1.597656 14.46875 2.875 14.46875 5.429688 C 14.46875 8.832031 11.171875 9.257813 8.617188 9.257813 C 8.617188 9.257813 7.34375 9.257813 7.023438 9.257813 C 7.023438 8.832031 7.023438 3.726563 7.023438 3.726563 Z M 14.789063 9.894531 C 16.707031 9.363281 18.40625 7.875 18.40625 5.214844 C 18.40625 0 12.234375 0 10.214844 0 L 0 0 L 0 0.851563 L 0.210938 0.960938 C 3.191406 1.492188 3.511719 1.492188 3.511719 3.726563 L 3.511719 21.28125 L 9.894531 21.28125 C 12.554688 21.28125 19.683594 21.28125 19.683594 15.429688 C 19.683594 12.554688 17.980469 10.640625 14.789063 9.894531 "/>
</g>
</g>
</svg>
