<?xml version="1.0" encoding="UTF-8"?>
<svg xmlns="http://www.w3.org/2000/svg" xmlns:xlink="http://www.w3.org/1999/xlink" width="597.15pt" height="174.12pt" viewBox="0 0 597.15 174.12" version="1.1">
<defs>
<clipPath id="clip1">
  <path d="M 0 0 L 597.148438 0 L 597.148438 90 L 0 90 Z M 0 0 "/>
</clipPath>
<clipPath id="clip2">
  <path d="M 366 129 L 391 129 L 391 174.121094 L 366 174.121094 Z M 366 129 "/>
</clipPath>
<clipPath id="clip3">
  <path d="M 574 129 L 597.148438 129 L 597.148438 160 L 574 160 Z M 574 129 "/>
</clipPath>
</defs>
<g id="surface1">
<g clip-path="url(#clip1)" clip-rule="nonzero">
<path style=" stroke:none;fill-rule:nonzero;fill:rgb(0%,27.43988%,49.804688%);fill-opacity:1;" d="M 572.808594 73.144531 C 571.003906 74.363281 568.792969 75.109375 566.714844 75.109375 C 557.222656 75.109375 554.804688 64.257813 554.804688 55.390625 C 554.804688 52.5625 554.804688 35.894531 568.050781 35.894531 C 571.828125 35.894531 574.515625 38.589844 575.378906 39.667969 C 579.394531 44.542969 579.394531 52.460938 579.394531 55.390625 C 579.394531 58.917969 579.394531 68.640625 572.808594 73.144531 M 579.007813 1.210938 L 579.007813 28.351563 C 575.613281 25.789063 570.625 21.886719 562.222656 21.886719 C 549.441406 21.886719 535.792969 31.753906 535.792969 55.746094 C 535.792969 59.871094 535.792969 72.65625 545.046875 81.539063 C 550.050781 86.421875 556.628906 88.859375 562.953125 88.859375 C 572.324219 88.859375 577.199219 84.117188 580.128906 81.199219 L 580.128906 87.152344 L 597.144531 87.152344 L 597.144531 1.210938 Z M 523.402344 1.210938 L 504.621094 1.210938 L 504.621094 87.160156 L 523.402344 87.160156 Z M 452.269531 39.058594 C 454.109375 37.125 457.261719 34.910156 461.785156 34.910156 C 465.070313 34.910156 468.625 36.160156 470.898438 38.464844 C 473.585938 41.253906 474.097656 44.78125 474.453125 47.464844 L 448.496094 47.464844 C 449.113281 44.78125 449.703125 41.871094 452.269531 39.058594 M 461.4375 89.46875 C 471.65625 89.46875 479.933594 85.570313 485.390625 80.464844 C 488.691406 77.410156 490.867188 74.238281 493.074219 70.9375 L 478.9375 63.789063 C 476.636719 68.285156 473.117188 74.996094 462.875 74.996094 C 452.773438 74.996094 448.246094 67.0625 448.378906 59.148438 L 493.785156 59.148438 C 493.550781 51.976563 493.074219 39.554688 484.773438 30.671875 C 476.636719 21.886719 465.695313 21.527344 461.90625 21.527344 C 436.816406 21.527344 429.257813 41.253906 429.257813 56.613281 C 429.257813 77.410156 442.550781 89.46875 461.4375 89.46875 M 416.835938 23.472656 L 398.355469 23.472656 L 398.355469 87.152344 L 416.835938 87.152344 Z M 416.835938 1.085938 L 398.355469 1.085938 L 398.355469 15.570313 L 416.835938 15.570313 Z M 357.921875 87.152344 L 376.566406 87.152344 L 376.566406 36.515625 L 388.964844 36.515625 L 388.964844 25.070313 L 376.453125 25.070313 C 376.296875 16.539063 376.683594 15.074219 383.730469 15.074219 L 388.226563 15.074219 L 388.226563 1.085938 C 384.59375 0.617188 380.820313 -0.00390625 377.066406 -0.00390625 C 368.257813 -0.00390625 363.070313 3.273438 360.6875 6.417969 C 358.273438 9.828125 358.046875 14.089844 358.046875 17.273438 L 358.046875 25.070313 L 347.9375 25.070313 L 347.9375 36.515625 L 357.921875 36.515625 Z M 348.199219 87.152344 L 323.476563 46.242188 L 345.398438 23.605469 L 322.867188 23.605469 L 302.300781 45.402344 L 302.300781 1.210938 L 283.914063 1.210938 L 283.914063 87.152344 L 302.171875 87.152344 L 302.171875 67.316406 L 310.222656 59.78125 L 326.511719 87.152344 Z M 222.390625 55.117188 C 222.390625 50.757813 223.277344 46.355469 225.59375 42.730469 C 228.160156 38.699219 231.316406 36.859375 236.667969 36.515625 C 239.359375 36.261719 243.714844 36.398438 247.617188 40.039063 C 251.164063 43.441406 252.867188 48.921875 252.867188 55.980469 C 252.867188 65.984375 247.867188 74.105469 237.78125 74.105469 C 227.300781 74.105469 222.390625 65.238281 222.390625 55.117188 M 271.851563 55.253906 C 271.851563 43.691406 266.140625 23.109375 240.226563 21.664063 C 215.855469 20.3125 203.550781 35.773438 203.550781 55.253906 C 203.550781 78.742188 219.871094 88.957031 237.78125 88.957031 C 262.601563 88.957031 271.851563 71.324219 271.851563 55.253906 M 161.675781 74.105469 C 151.195313 74.105469 146.328125 65.238281 146.328125 55.117188 C 146.328125 50.757813 147.167969 46.355469 149.503906 42.730469 C 152.0625 38.699219 155.222656 36.859375 160.574219 36.515625 C 163.265625 36.261719 167.625 36.398438 171.523438 40.039063 C 175.058594 43.441406 176.757813 48.921875 176.757813 55.980469 C 176.757813 65.984375 171.769531 74.105469 161.675781 74.105469 M 164.121094 21.664063 C 139.761719 20.3125 127.460938 35.773438 127.460938 55.253906 C 127.460938 78.742188 143.777344 88.957031 161.675781 88.957031 C 186.507813 88.957031 195.757813 71.324219 195.757813 55.253906 C 195.757813 43.691406 190.054688 23.109375 164.121094 21.664063 M 104.210938 23.472656 L 85.953125 23.472656 L 85.953125 87.152344 L 104.710938 87.152344 L 104.710938 51.351563 C 104.710938 43.3125 107.375 41.992188 116.371094 40.390625 L 122.589844 39.4375 L 122.589844 22.859375 C 112.851563 23.84375 108.347656 26.636719 104.210938 30.171875 Z M 35.417969 71.566406 L 20.445313 71.566406 L 20.445313 50.757813 L 39.082031 50.757813 C 43.449219 50.878906 51.972656 50.992188 51.972656 61.359375 C 51.972656 71.207031 42.585938 71.433594 35.417969 71.566406 M 20.445313 17.273438 L 38.101563 17.273438 C 42.226563 17.273438 49.421875 17.632813 49.421875 25.910156 C 49.421875 34.796875 41.507813 35.027344 36.652344 35.160156 L 20.445313 35.160156 Z M 52.121094 42.957031 C 56.730469 41.992188 65.007813 40.28125 68.910156 31.527344 C 69.28125 30.671875 70.476563 27.859375 70.476563 23.21875 C 70.476563 15.074219 66.242188 6.671875 55.628906 3.273438 C 50.386719 1.546875 42.226563 1.210938 33.246094 1.210938 L 0 1.210938 L 0 87.152344 L 36.277344 87.152344 C 46.125 87.152344 53.074219 86.792969 59.507813 84.007813 C 70.261719 79.234375 73.78125 69.867188 73.78125 63.175781 C 73.78125 58.292969 72.070313 53.574219 69.011719 50.265625 C 64.273438 44.910156 57.351563 43.800781 52.121094 42.957031 "/>
</g>
<path style=" stroke:none;fill-rule:nonzero;fill:rgb(0%,27.43988%,49.804688%);fill-opacity:1;" d="M 237.714844 158.726563 L 241.773438 158.726563 L 241.773438 115.769531 L 237.714844 115.769531 Z M 237.714844 158.726563 "/>
<path style=" stroke:none;fill-rule:nonzero;fill:rgb(0%,27.43988%,49.804688%);fill-opacity:1;" d="M 264.648438 129.101563 C 259.488281 129.101563 256.554688 132.023438 255.589844 134.921875 L 255.589844 129.765625 L 251.996094 129.765625 L 251.996094 158.726563 L 255.589844 158.726563 L 255.589844 146.011719 C 255.589844 139.929688 255.589844 138.050781 257.40625 135.609375 C 258.933594 133.589844 260.871094 132.328125 264.164063 132.328125 C 267.382813 132.328125 269.089844 133.785156 269.824219 134.820313 C 270.910156 136.398438 270.910156 138.050781 270.910156 143.6875 L 270.910156 158.726563 L 274.503906 158.726563 L 274.503906 143.6875 C 274.503906 137.425781 274.449219 135.054688 272.546875 132.570313 C 270.066406 129.296875 266.222656 129.101563 264.648438 129.101563 "/>
<path style=" stroke:none;fill-rule:nonzero;fill:rgb(0%,27.43988%,49.804688%);fill-opacity:1;" d="M 296.285156 132.253906 C 298.890625 132.253906 302.550781 133.363281 304.136719 137.128906 L 307.476563 136.332031 C 306.921875 134.820313 304.550781 129.027344 296.410156 129.027344 C 288.433594 129.027344 282.535156 134.773438 282.535156 144.429688 C 282.535156 151.894531 286.496094 159.449219 295.851563 159.449219 C 301.699219 159.449219 304.25 156.78125 305.222656 155.75 C 306.441406 154.402344 306.816406 153.617188 307.476563 152.273438 L 303.765625 151.433594 C 301.945313 155.132813 298.957031 156.292969 295.984375 156.292969 C 288.070313 156.292969 286.433594 148.738281 286.433594 144.242188 C 286.433594 136.59375 290.6875 132.253906 296.285156 132.253906 "/>
<path style=" stroke:none;fill-rule:nonzero;fill:rgb(0%,27.43988%,49.804688%);fill-opacity:1;" d="M 325.46875 156.292969 C 320.496094 156.292969 316.238281 152.949219 316.238281 144.671875 C 316.238281 142.3125 316.472656 137.980469 318.964844 135.054688 C 320.609375 133.117188 323.113281 132.078125 325.664063 132.078125 C 335.023438 132.078125 334.90625 142.847656 334.90625 144.484375 C 334.835938 151.238281 331.871094 156.292969 325.46875 156.292969 M 325.605469 129.027344 C 316.238281 129.027344 312.382813 137.085938 312.382813 144.609375 C 312.382813 152.761719 317.019531 159.449219 325.46875 159.449219 C 333.6875 159.449219 338.800781 152.882813 338.757813 144.074219 C 338.679688 136.59375 334.777344 129.027344 325.605469 129.027344 "/>
<path style=" stroke:none;fill-rule:nonzero;fill:rgb(0%,27.43988%,49.804688%);fill-opacity:1;" d="M 350.296875 134.332031 L 350.296875 129.714844 L 346.769531 129.714844 L 346.769531 158.726563 L 350.296875 158.726563 L 350.296875 146.207031 C 350.367188 140.230469 350.367188 137.253906 352.609375 134.773438 C 354.746094 132.503906 357.589844 132.441406 358.578125 132.441406 C 359.539063 132.441406 359.671875 132.441406 360.765625 132.632813 L 360.765625 129.402344 C 360.027344 129.296875 359.609375 129.226563 358.757813 129.226563 C 355.171875 129.226563 352.117188 130.5 350.296875 134.332031 "/>
<g clip-path="url(#clip2)" clip-rule="nonzero">
<path style=" stroke:none;fill-rule:nonzero;fill:rgb(0%,27.43988%,49.804688%);fill-opacity:1;" d="M 378.214844 155.96875 C 374.992188 155.96875 371.71875 154.347656 370.503906 149.652344 C 370.011719 147.824219 370.011719 145.890625 370.066406 143.835938 C 370.136719 141.144531 370.378906 132.386719 378.214844 132.386719 C 384.355469 132.386719 387.21875 137.617188 387.21875 143.878906 C 387.21875 148.679688 385.277344 155.96875 378.214844 155.96875 M 378.828125 129.101563 C 376.207031 129.101563 373.65625 129.960938 371.824219 131.777344 C 370.796875 132.8125 370.503906 133.492188 370.066406 134.453125 L 370.066406 129.714844 L 366.53125 129.714844 L 366.53125 174.121094 L 370.066406 174.121094 L 370.066406 153.910156 C 371.71875 157.746094 375.183594 159.390625 378.890625 159.390625 C 386.683594 159.390625 390.921875 152.15625 390.921875 144.3125 C 390.921875 138.292969 388.253906 129.101563 378.828125 129.101563 "/>
</g>
<path style=" stroke:none;fill-rule:nonzero;fill:rgb(0%,27.43988%,49.804688%);fill-opacity:1;" d="M 410.085938 156.292969 C 405.113281 156.292969 400.84375 152.949219 400.84375 144.671875 C 400.84375 142.3125 401.101563 137.980469 403.585938 135.054688 C 405.230469 133.117188 407.714844 132.078125 410.265625 132.078125 C 419.644531 132.078125 419.523438 142.847656 419.523438 144.484375 C 419.46875 151.238281 416.488281 156.292969 410.085938 156.292969 M 410.214844 129.027344 C 400.84375 129.027344 397.019531 137.085938 397.019531 144.609375 C 397.019531 152.761719 401.636719 159.449219 410.085938 159.449219 C 418.300781 159.449219 423.40625 152.882813 423.351563 144.074219 C 423.285156 136.59375 419.40625 129.027344 410.214844 129.027344 "/>
<path style=" stroke:none;fill-rule:nonzero;fill:rgb(0%,27.43988%,49.804688%);fill-opacity:1;" d="M 434.90625 134.332031 L 434.90625 129.714844 L 431.375 129.714844 L 431.375 158.726563 L 434.90625 158.726563 L 434.90625 146.207031 C 434.976563 140.230469 434.976563 137.253906 437.226563 134.773438 C 439.355469 132.503906 442.21875 132.441406 443.1875 132.441406 C 444.160156 132.441406 444.289063 132.441406 445.375 132.632813 L 445.375 129.402344 C 444.640625 129.296875 444.222656 129.226563 443.363281 129.226563 C 439.777344 129.226563 436.734375 130.5 434.90625 134.332031 "/>
<path style=" stroke:none;fill-rule:nonzero;fill:rgb(0%,27.43988%,49.804688%);fill-opacity:1;" d="M 468.730469 145.515625 C 468.6875 148.4375 468.558594 150.753906 466.300781 153.011719 C 464.414063 154.894531 461.300781 156.164063 458.574219 156.164063 C 454.492188 156.164063 452.796875 153.679688 452.796875 151.355469 C 452.796875 147.773438 456.445313 146.683594 459.722656 145.769531 C 461.25 145.339844 462.898438 144.902344 466.921875 143.835938 L 468.730469 143.394531 Z M 472.136719 149.601563 L 472.136719 140.230469 C 472.136719 137.375 472.136719 136.023438 471.773438 134.632813 C 470.441406 129.890625 465.082031 128.980469 461.5625 128.980469 C 457.59375 128.980469 453.894531 130.191406 451.835938 133.492188 C 450.671875 135.195313 450.363281 137.007813 450.121094 138.476563 L 454.074219 139.121094 C 454.128906 136.097656 454.566406 132.078125 461.691406 132.078125 C 468.730469 132.078125 468.730469 136.710938 468.730469 138.777344 L 468.730469 140.230469 L 465.253906 141.011719 C 456.140625 143.144531 449.28125 144.726563 449.28125 151.433594 C 449.28125 154.46875 451.210938 159.3125 458.398438 159.3125 C 462.585938 159.3125 466.792969 157.507813 468.496094 153.976563 C 468.558594 153.816406 468.625 153.617188 468.730469 153.367188 L 468.730469 153.910156 C 469.050781 158.355469 472.136719 158.726563 476.519531 158.726563 L 476.519531 155.855469 C 472.207031 155.929688 472.136719 154.703125 472.136719 149.601563 "/>
<path style=" stroke:none;fill-rule:nonzero;fill:rgb(0%,27.43988%,49.804688%);fill-opacity:1;" d="M 494.109375 132.253906 C 496.777344 132.253906 500.425781 133.363281 502.007813 137.128906 L 505.359375 136.332031 C 504.8125 134.820313 502.433594 129.027344 494.277344 129.027344 C 486.304688 129.027344 480.347656 134.773438 480.347656 144.429688 C 480.347656 151.796875 483.824219 156.425781 487.78125 158.296875 C 489.773438 159.207031 491.367188 159.3125 492.761719 159.449219 L 490.699219 163.03125 L 490.699219 164.503906 C 491.300781 164.265625 492.03125 163.886719 493.015625 163.886719 C 494.890625 163.886719 496.054688 164.921875 496.054688 166.214844 C 496.054688 166.394531 495.992188 168.570313 492.636719 168.570313 C 491.957031 168.570313 491.425781 168.53125 490.699219 168.464844 L 490.699219 170.097656 C 492.148438 170.226563 492.636719 170.277344 493.015625 170.277344 C 496.359375 170.277344 499.148438 168.386719 499.148438 165.285156 C 499.148438 162.910156 497.363281 161.394531 494.890625 161.394531 C 494.222656 161.394531 493.796875 161.457031 493.191406 161.574219 L 494.277344 159.523438 C 500.671875 159.207031 503.535156 155.96875 505.359375 152.273438 L 501.640625 151.472656 C 499.820313 155.207031 496.828125 156.347656 493.863281 156.347656 C 485.875 156.347656 484.246094 148.738281 484.246094 144.3125 C 484.246094 136.59375 488.570313 132.253906 494.109375 132.253906 "/>
<path style=" stroke:none;fill-rule:nonzero;fill:rgb(0%,27.43988%,49.804688%);fill-opacity:1;" d="M 523.304688 156.292969 C 518.3125 156.292969 514.054688 152.949219 514.054688 144.671875 C 514.054688 142.3125 514.289063 137.980469 516.796875 135.054688 C 518.421875 133.117188 520.917969 132.078125 523.480469 132.078125 C 532.839844 132.078125 532.730469 142.847656 532.730469 144.484375 C 532.65625 151.238281 529.675781 156.292969 523.304688 156.292969 M 523.421875 129.027344 C 514.054688 129.027344 510.222656 137.085938 510.222656 144.609375 C 510.222656 152.761719 514.851563 159.449219 523.304688 159.449219 C 531.503906 159.449219 536.625 152.882813 536.574219 144.074219 C 536.496094 136.59375 532.609375 129.027344 523.421875 129.027344 "/>
<path style=" stroke:none;fill-rule:nonzero;fill:rgb(0%,27.43988%,49.804688%);fill-opacity:1;" d="M 513.808594 122.832031 L 516.351563 123.378906 C 516.917969 122.230469 517.574219 120.820313 519.097656 120.820313 C 519.820313 120.820313 520.429688 121.144531 522.253906 122.039063 C 524.03125 122.957031 525.535156 123.738281 527.015625 123.738281 C 530.234375 123.738281 531.628906 120.699219 532.796875 118.273438 L 530.289063 117.667969 C 529.875 118.695313 529.140625 120.28125 527.375 120.28125 C 526.46875 120.28125 525.363281 119.800781 524.03125 119.066406 C 522.679688 118.332031 521.164063 117.539063 519.519531 117.539063 C 515.9375 117.539063 514.410156 121.320313 513.808594 122.832031 "/>
<path style=" stroke:none;fill-rule:nonzero;fill:rgb(0%,27.43988%,49.804688%);fill-opacity:1;" d="M 555.96875 132.253906 C 558.824219 132.253906 560.765625 133.363281 561.988281 134.453125 C 563.941406 136.285156 564.710938 138.777344 565.019531 141.332031 L 546.65625 141.332031 C 547.320313 135.78125 550.976563 132.253906 555.96875 132.253906 M 556.4375 156.230469 C 555.238281 156.230469 549.832031 156.230469 547.507813 150.28125 C 546.65625 148.019531 546.535156 145.769531 546.59375 144.242188 L 569.101563 144.242188 C 569.355469 136.710938 564.769531 129.027344 556.019531 129.027344 C 548.964844 129.027344 542.640625 134.390625 542.640625 144.015625 C 542.640625 152.09375 546.835938 159.449219 556.4375 159.449219 C 562.703125 159.449219 565.511719 156.347656 566.359375 155.4375 C 567.898438 153.722656 568.675781 152.09375 569.101563 151.0625 L 565.746094 150.152344 C 563.273438 155.132813 559.605469 156.230469 556.4375 156.230469 "/>
<g clip-path="url(#clip3)" clip-rule="nonzero">
<path style=" stroke:none;fill-rule:nonzero;fill:rgb(0%,27.43988%,49.804688%);fill-opacity:1;" d="M 586.503906 132.144531 C 588.195313 132.144531 589.847656 132.441406 591.0625 133.171875 C 593.011719 134.273438 593.378906 135.671875 593.550781 136.460938 L 597.023438 135.609375 C 596.785156 134.691406 596.042969 132.253906 593.425781 130.683594 C 591.847656 129.714844 589.535156 129.027344 586.683594 129.027344 C 577.984375 129.027344 576.273438 134.152344 576.273438 137.128906 C 576.273438 142.785156 581.144531 144.015625 583.828125 144.609375 C 584.984375 144.863281 586.179688 145.09375 587.296875 145.339844 C 589.664063 145.839844 593.496094 146.742188 593.496094 150.507813 C 593.496094 153.546875 591.113281 156.230469 586.132813 156.230469 C 581.144531 156.230469 578.648438 153.066406 577.984375 150.460938 L 574.449219 151.65625 C 575.484375 154.15625 576.777344 155.96875 578.839844 157.390625 C 580.054688 158.230469 582.425781 159.449219 586.132813 159.449219 C 593.679688 159.449219 597.023438 154.820313 597.023438 150.570313 C 597.023438 148.679688 596.351563 146.859375 595.070313 145.472656 C 593.257813 143.445313 590.804688 142.847656 588.933594 142.359375 L 585.882813 141.6875 C 582.671875 140.976563 579.808594 140.175781 579.808594 137.007813 C 579.808594 132.6875 584.320313 132.144531 586.503906 132.144531 "/>
</g>
</g>
</svg>
