<?xml version="1.0" standalone="no"?>
<!DOCTYPE svg PUBLIC "-//W3C//DTD SVG 20010904//EN"
 "http://www.w3.org/TR/2001/REC-SVG-20010904/DTD/svg10.dtd">
<svg version="1.0" xmlns="http://www.w3.org/2000/svg"
 width="2000.000000pt" height="1500.000000pt" viewBox="0 0 2000.000000 1500.000000"
 preserveAspectRatio="xMidYMid meet">

<g transform="translate(0.000000,1500.000000) scale(0.100000,-0.100000)"
fill="#000000" stroke="none">
<path d="M5800 10145 l0 -4195 4200 0 4200 0 0 4195 0 4195 -4200 0 -4200 0 0
-4195z m8035 0 l0 -3830 -3837 -3 -3838 -2 0 3835 0 3835 3838 -2 3837 -3 0
-3830z"/>
<path d="M6250 10140 l0 -3750 3750 0 3750 0 0 3750 0 3750 -3750 0 -3750 0 0
-3750z m5486 2825 c65 -176 120 -323 123 -327 3 -3 162 -12 353 -19 191 -7
345 -16 343 -19 -3 -4 -126 -103 -274 -220 l-269 -212 9 -32 c6 -17 25 -85 43
-151 19 -66 57 -203 85 -304 29 -101 50 -185 48 -187 -1 -2 -133 84 -293 190
l-289 193 -289 -193 c-160 -106 -291 -192 -293 -190 -2 2 38 150 88 329 50
180 89 332 86 340 -3 8 -125 108 -271 223 -146 115 -265 212 -266 215 0 3 156
11 348 18 191 7 348 14 348 14 1 2 85 227 236 636 5 13 10 22 12 20 2 -2 57
-148 122 -324z m-2325 -226 c278 -28 534 -119 742 -262 220 -152 368 -318 497
-560 l52 -97 -159 -103 c-351 -229 -362 -236 -370 -224 -4 7 -22 43 -40 80
-134 278 -357 463 -651 538 -42 11 -129 24 -194 31 -255 25 -493 -30 -694
-161 -292 -188 -485 -494 -567 -896 -31 -156 -31 -463 1 -608 114 -512 447
-906 877 -1033 69 -20 120 -27 217 -31 l128 -6 2 874 3 874 1030 0 1030 0 85
-22 c170 -45 314 -135 450 -280 117 -125 205 -292 252 -478 19 -76 22 -117 23
-260 0 -155 -3 -179 -28 -269 -61 -221 -183 -420 -326 -531 -28 -22 -51 -42
-51 -45 0 -3 31 -22 68 -43 493 -277 655 -999 331 -1479 -59 -88 -178 -208
-266 -269 -81 -56 -245 -137 -289 -143 -16 -2 -76 -16 -134 -30 -171 -42 -309
-47 -1285 -44 l-900 3 -3 681 -2 680 152 17 c148 16 321 53 440 94 32 11 60
18 63 15 3 -3 5 -207 5 -454 l0 -448 638 0 c684 0 685 0 787 52 127 65 234
194 277 331 88 282 -76 610 -347 698 -29 9 -165 14 -499 18 l-460 6 71 51
c169 124 302 261 408 423 l50 76 140 6 c148 6 188 15 272 64 102 60 193 189
228 321 19 75 19 223 0 298 -40 154 -130 273 -253 333 l-76 38 -618 3 -618 3
0 -456 c0 -529 -14 -489 122 -346 95 99 174 213 237 339 23 45 44 82 47 82 2
0 105 -93 228 -206 l224 -206 -22 -51 c-192 -455 -639 -778 -1246 -899 -154
-30 -432 -33 -590 -4 -926 165 -1617 1110 -1550 2116 34 502 251 980 596 1310
393 376 904 547 1465 489z m2834 -5232 c24 -18 11 -41 -15 -27 -26 14 -83 13
-98 -2 -31 -31 -8 -60 59 -72 83 -15 117 -83 63 -125 -31 -25 -80 -27 -129 -7
-42 18 -48 42 -7 31 70 -17 88 -17 112 4 35 28 17 53 -51 69 -91 22 -121 78
-67 125 25 21 106 23 133 4z m130 -62 c28 -35 55 -64 60 -64 6 0 33 29 60 64
28 35 54 64 58 65 4 0 6 -55 5 -122 -3 -141 -20 -163 -28 -36 l-5 82 -45 -58
c-42 -56 -45 -57 -60 -39 -8 11 -29 37 -47 59 l-32 39 -1 -88 c0 -66 -3 -88
-12 -85 -15 5 -25 248 -11 247 4 0 31 -29 58 -64z"/>
<path d="M5588 4869 c-351 -51 -663 -332 -758 -684 -31 -114 -38 -301 -15
-420 34 -181 110 -328 239 -463 97 -101 173 -157 287 -212 136 -65 220 -83
389 -83 169 -1 257 17 395 82 108 51 163 89 254 175 186 179 277 381 288 637
8 178 -19 305 -96 460 -181 362 -578 568 -983 508z m247 -354 c109 -23 188
-68 280 -160 125 -124 178 -246 178 -410 0 -158 -53 -292 -159 -405 -151 -160
-333 -219 -524 -171 -107 27 -177 68 -265 156 -78 77 -134 173 -160 271 -19
74 -19 200 0 283 49 205 236 392 438 436 82 18 127 18 212 0z"/>
<path d="M3675 4856 c-278 -64 -511 -242 -638 -485 -78 -150 -107 -268 -107
-438 0 -244 85 -455 254 -631 97 -101 173 -157 287 -212 134 -64 220 -82 384
-83 114 -1 157 3 229 21 168 42 322 129 442 249 70 70 169 212 156 224 -4 3
-83 36 -175 74 l-168 68 -16 -24 c-9 -13 -48 -56 -87 -95 -86 -85 -202 -147
-308 -164 -316 -50 -628 238 -628 580 0 245 156 470 389 561 81 32 251 32 332
0 105 -41 224 -131 291 -221 l25 -35 172 69 c98 39 171 73 171 81 0 22 -80
134 -133 186 -126 124 -264 207 -423 255 -75 23 -112 27 -239 30 -104 3 -169
-1 -210 -10z"/>
<path d="M8422 3943 l3 -908 330 -3 c501 -4 648 14 830 103 237 115 395 332
444 609 14 77 14 315 0 392 -35 198 -118 356 -251 479 -117 108 -241 172 -409
211 -62 14 -144 18 -512 21 l-437 5 2 -909z m903 537 c96 -25 147 -53 207
-118 64 -68 105 -153 123 -258 50 -285 -27 -544 -192 -653 -95 -63 -151 -73
-420 -79 l-243 -4 0 566 0 566 223 0 c191 0 235 -3 302 -20z"/>
<path d="M6940 3935 l0 -905 653 2 652 3 3 168 2 167 -470 0 -470 0 0 735 0
735 -185 0 -185 0 0 -905z"/>
<path d="M10099 4733 c22 -60 96 -261 165 -448 69 -187 202 -545 294 -795 168
-455 168 -455 197 -455 28 0 34 11 261 495 128 272 237 494 241 494 7 -1 107
-213 359 -759 53 -115 101 -216 107 -223 6 -7 22 -12 36 -10 21 2 29 13 48 63
12 33 153 411 313 840 160 429 301 808 315 843 l23 62 -201 0 -202 0 -129
-358 c-197 -544 -208 -574 -217 -565 -4 4 -102 213 -218 463 -198 429 -211
455 -236 455 -24 0 -38 -26 -236 -455 -116 -250 -214 -459 -218 -463 -5 -4
-82 200 -173 455 l-165 463 -201 3 -202 2 39 -107z"/>
<path d="M12622 3938 l3 -903 670 0 670 0 0 170 0 170 -483 3 -482 2 2 188 3
187 428 3 427 2 0 170 0 170 -430 0 -430 0 0 205 0 205 485 0 485 0 0 165 0
165 -675 0 -675 0 2 -902z"/>
<path d="M14272 3938 l3 -903 655 0 655 0 3 168 2 167 -470 0 -470 0 0 735 0
735 -190 0 -190 0 2 -902z"/>
<path d="M15760 3935 l0 -905 655 0 655 0 0 170 0 170 -467 2 -468 3 -3 733
-2 732 -185 0 -185 0 0 -905z"/>
<path d="M13657 2473 c-4 -3 -7 -411 -7 -905 l0 -898 190 0 190 0 0 280 0 280
153 0 153 0 109 -152 c60 -84 151 -210 203 -280 l95 -128 225 0 224 0 -18 27
c-9 16 -107 149 -216 296 -109 148 -198 271 -198 275 0 4 30 25 66 47 134 81
240 239 269 400 18 104 18 153 0 261 -34 195 -148 352 -316 433 -136 65 -192
71 -689 71 -235 0 -430 -3 -433 -7z m907 -344 c98 -27 166 -143 166 -282 0
-62 -5 -83 -31 -135 -34 -69 -81 -114 -138 -131 -24 -7 -129 -11 -285 -11
l-246 0 0 285 0 285 248 0 c146 0 263 -5 286 -11z"/>
<path d="M4800 1566 l0 -906 478 0 c441 0 485 2 554 19 244 63 370 232 371
501 1 115 -20 181 -88 275 -48 68 -84 99 -153 135 l-42 22 43 28 c114 72 187
235 172 382 -25 238 -123 367 -322 425 -50 14 -127 17 -535 21 l-478 4 0 -906z
m877 542 c54 -35 78 -87 78 -165 0 -52 -5 -68 -30 -105 -18 -25 -49 -52 -75
-66 -43 -21 -54 -22 -260 -20 l-215 3 -3 180 c-1 98 0 185 3 193 4 11 48 13
233 10 228 -3 229 -3 269 -30z m38 -717 c47 -22 89 -64 104 -104 31 -80 -5
-189 -82 -251 l-39 -31 -261 0 -262 0 -3 190 c-1 104 0 195 2 202 4 10 61 13
253 13 220 0 253 -3 288 -19z"/>
<path d="M7157 2443 c-8 -15 -209 -408 -447 -873 -238 -465 -439 -857 -446
-872 l-15 -28 206 0 205 0 64 135 65 135 411 0 411 0 66 -135 66 -135 204 0
204 0 -182 358 c-100 196 -199 389 -219 427 -21 39 -125 243 -233 455 -300
590 -280 554 -316 558 -24 3 -33 -2 -44 -25z m150 -921 c56 -119 105 -225 108
-234 7 -17 -8 -18 -215 -18 -184 0 -221 2 -218 14 5 23 212 456 218 456 3 0
51 -98 107 -218z"/>
<path d="M8310 1565 l0 -905 188 2 187 3 3 508 c1 280 6 507 11 505 4 -2 257
-228 561 -503 304 -275 562 -504 575 -509 12 -5 30 -6 39 -3 15 6 16 87 16
907 l0 900 -190 0 -190 0 -2 -520 -3 -520 -565 520 c-499 458 -569 519 -597
519 l-33 1 0 -905z"/>
<path d="M10252 1568 l3 -903 183 -3 182 -2 0 386 c0 235 4 384 9 382 6 -1
103 -104 217 -228 114 -124 255 -277 314 -340 58 -63 123 -134 144 -157 l38
-43 245 0 c152 0 243 4 241 10 -3 9 -335 367 -647 698 -140 148 -153 166 -142
184 6 10 168 216 360 456 191 240 350 443 355 450 6 9 -41 12 -223 12 l-230 0
-331 -422 c-182 -233 -335 -424 -340 -426 -6 -2 -10 157 -10 422 l0 426 -185
0 -185 0 2 -902z"/>
<path d="M12002 1568 l3 -903 670 0 670 0 0 170 0 170 -482 3 -483 2 0 190 0
190 430 0 430 0 0 170 0 170 -430 0 -430 0 0 205 0 205 485 0 485 0 0 165 0
165 -675 0 -675 0 2 -902z"/>
</g>
</svg>
